<svg width="227" height="48" viewBox="0 0 227 48" fill="none" xmlns="http://www.w3.org/2000/svg">
<path d="M0 20C0 8.95431 8.9543 0 20 0H207C218.046 0 227 8.9543 227 20V28C227 39.0457 218.046 48 207 48H20C8.95431 48 0 39.0457 0 28V20Z" fill="white"/>
<path fill-rule="evenodd" clip-rule="evenodd" d="M207 3H20C10.6112 3 3 10.6112 3 20V28C3 37.3888 10.6112 45 20 45H207C216.389 45 224 37.3888 224 28V20C224 10.6112 216.389 3 207 3ZM20 0C8.9543 0 0 8.95431 0 20V28C0 39.0457 8.95431 48 20 48H207C218.046 48 227 39.0457 227 28V20C227 8.9543 218.046 0 207 0H20Z" fill="url(#paint0_linear_186_200)"/>
<path d="M187.766 20.0909V22.3637H181.196V20.0909H187.766ZM182.688 17.4773H185.713V27.6477C185.713 27.9271 185.756 28.1449 185.841 28.3012C185.926 28.4527 186.045 28.5592 186.196 28.6208C186.353 28.6823 186.532 28.7131 186.736 28.7131C186.878 28.7131 187.02 28.7013 187.162 28.6776C187.304 28.6492 187.413 28.6279 187.489 28.6137L187.965 30.8651C187.813 30.9124 187.6 30.9669 187.326 31.0284C187.051 31.0947 186.717 31.135 186.324 31.1492C185.595 31.1776 184.956 31.0805 184.407 30.858C183.862 30.6354 183.438 30.2898 183.135 29.821C182.832 29.3523 182.683 28.7604 182.688 28.0455V17.4773Z" fill="#222222"/>
<path d="M174.982 31.2132C173.86 31.2132 172.894 30.9859 172.084 30.5314C171.279 30.0721 170.659 29.4234 170.223 28.5853C169.788 27.7425 169.57 26.7458 169.57 25.5953C169.57 24.4731 169.788 23.4883 170.223 22.6407C170.659 21.7932 171.272 21.1327 172.063 20.6592C172.858 20.1857 173.791 19.949 174.861 19.949C175.581 19.949 176.251 20.065 176.871 20.297C177.496 20.5243 178.04 20.8675 178.504 21.3268C178.973 21.7861 179.338 22.3637 179.598 23.0598C179.859 23.7511 179.989 24.5607 179.989 25.4887V26.3197H170.777V24.4447H177.141C177.141 24.0091 177.046 23.6232 176.857 23.287C176.667 22.9509 176.405 22.6881 176.068 22.4987C175.737 22.3046 175.351 22.2075 174.911 22.2075C174.451 22.2075 174.044 22.314 173.689 22.5271C173.339 22.7354 173.064 23.0172 172.865 23.3723C172.666 23.7226 172.565 24.1133 172.56 24.5441V26.3268C172.56 26.8666 172.659 27.333 172.858 27.726C173.062 28.119 173.348 28.422 173.718 28.6351C174.087 28.8481 174.525 28.9547 175.031 28.9547C175.368 28.9547 175.675 28.9073 175.955 28.8126C176.234 28.7179 176.473 28.5759 176.672 28.3865C176.871 28.1971 177.022 27.9651 177.127 27.6905L179.925 27.8751C179.783 28.5475 179.492 29.1346 179.051 29.6365C178.616 30.1336 178.052 30.5219 177.361 30.8012C176.674 31.0759 175.881 31.2132 174.982 31.2132Z" fill="#222222"/>
<path d="M167.587 16.4546V31H164.561V16.4546H167.587Z" fill="#222222"/>
<path d="M162.137 16.4546V31H159.112V16.4546H162.137Z" fill="#222222"/>
<path d="M150.621 31.2061C149.925 31.2061 149.305 31.0853 148.76 30.8439C148.216 30.5976 147.785 30.2354 147.468 29.7572C147.155 29.2743 146.999 28.6729 146.999 27.9532C146.999 27.3472 147.11 26.8382 147.333 26.4262C147.555 26.0143 147.858 25.6829 148.242 25.4319C148.625 25.181 149.061 24.9916 149.548 24.8637C150.041 24.7359 150.557 24.6459 151.097 24.5939C151.731 24.5276 152.243 24.466 152.631 24.4092C153.019 24.3476 153.301 24.2577 153.476 24.1393C153.651 24.0209 153.739 23.8458 153.739 23.6137V23.5711C153.739 23.1213 153.597 22.7733 153.313 22.5271C153.033 22.2809 152.636 22.1578 152.12 22.1578C151.575 22.1578 151.142 22.2785 150.82 22.52C150.498 22.7567 150.285 23.055 150.181 23.4149L147.382 23.1876C147.524 22.5247 147.804 21.9518 148.22 21.4689C148.637 20.9812 149.174 20.6071 149.833 20.3467C150.495 20.0815 151.263 19.949 152.134 19.949C152.74 19.949 153.32 20.02 153.874 20.162C154.432 20.3041 154.927 20.5243 155.358 20.8226C155.794 21.1208 156.137 21.5044 156.388 21.9731C156.639 22.4371 156.764 22.9935 156.764 23.6422V31.0001H153.895V29.4873H153.81C153.635 29.8282 153.4 30.1289 153.107 30.3893C152.813 30.645 152.46 30.8462 152.048 30.993C151.637 31.1351 151.161 31.2061 150.621 31.2061ZM151.487 29.118C151.932 29.118 152.325 29.0304 152.666 28.8552C153.007 28.6753 153.275 28.4338 153.469 28.1308C153.663 27.8278 153.76 27.4845 153.76 27.101V25.9433C153.665 26.0048 153.535 26.0617 153.37 26.1137C153.209 26.1611 153.026 26.2061 152.823 26.2487C152.619 26.2866 152.415 26.3221 152.212 26.3552C152.008 26.3836 151.824 26.4097 151.658 26.4333C151.303 26.4854 150.993 26.5683 150.727 26.6819C150.462 26.7956 150.256 26.9494 150.11 27.1436C149.963 27.333 149.889 27.5697 149.889 27.8538C149.889 28.2657 150.039 28.5806 150.337 28.7984C150.64 29.0115 151.023 29.118 151.487 29.118Z" fill="#222222"/>
<path d="M131.29 31L127.128 16.4546H130.488L132.895 26.5611H133.016L135.672 16.4546H138.549L141.198 26.5824H141.326L143.734 16.4546H147.093L142.931 31H139.934L137.164 21.4901H137.05L134.288 31H131.29Z" fill="#222222"/>
<path d="M121.36 20.0909V22.3637H114.79V20.0909H121.36ZM116.282 17.4773H119.307V27.6477C119.307 27.9271 119.35 28.1449 119.435 28.3012C119.52 28.4527 119.639 28.5592 119.79 28.6208C119.946 28.6823 120.126 28.7131 120.33 28.7131C120.472 28.7131 120.614 28.7013 120.756 28.6776C120.898 28.6492 121.007 28.6279 121.083 28.6137L121.559 30.8651C121.407 30.9124 121.194 30.9669 120.919 31.0284C120.645 31.0947 120.311 31.135 119.918 31.1492C119.189 31.1776 118.55 31.0805 118 30.858C117.456 30.6354 117.032 30.2898 116.729 29.821C116.426 29.3523 116.277 28.7604 116.282 28.0455V17.4773Z" fill="#222222"/>
<path d="M108.748 31.2132C107.63 31.2132 106.669 30.9764 105.864 30.503C105.064 30.0247 104.448 29.3619 104.018 28.5143C103.591 27.6668 103.378 26.6914 103.378 25.5882C103.378 24.4708 103.594 23.4906 104.025 22.6478C104.46 21.8003 105.078 21.1398 105.878 20.6663C106.679 20.1881 107.63 19.949 108.734 19.949C109.685 19.949 110.519 20.1218 111.234 20.4674C111.948 20.8131 112.514 21.2984 112.931 21.9234C113.348 22.5484 113.577 23.2823 113.62 24.1251H110.765C110.684 23.5806 110.471 23.1426 110.126 22.8112C109.785 22.475 109.337 22.3069 108.783 22.3069C108.314 22.3069 107.905 22.4348 107.555 22.6905C107.209 22.9414 106.939 23.3083 106.745 23.7913C106.551 24.2743 106.454 24.859 106.454 25.5456C106.454 26.2416 106.548 26.8334 106.738 27.3211C106.932 27.8088 107.204 28.1805 107.555 28.4362C107.905 28.6919 108.314 28.8197 108.783 28.8197C109.129 28.8197 109.439 28.7487 109.714 28.6066C109.993 28.4646 110.223 28.2586 110.403 27.9887C110.587 27.7141 110.708 27.3851 110.765 27.0015H113.62C113.573 27.8349 113.345 28.5688 112.938 29.2032C112.536 29.833 111.979 30.3254 111.269 30.6805C110.559 31.0356 109.718 31.2132 108.748 31.2132Z" fill="#222222"/>
<path d="M96.8372 31.2132C95.7151 31.2132 94.7492 30.9859 93.9395 30.5314C93.1346 30.0721 92.5143 29.4234 92.0787 28.5853C91.6431 27.7425 91.4253 26.7458 91.4253 25.5953C91.4253 24.4731 91.6431 23.4883 92.0787 22.6407C92.5143 21.7932 93.1275 21.1327 93.9182 20.6592C94.7136 20.1857 95.6464 19.949 96.7165 19.949C97.4362 19.949 98.1062 20.065 98.7264 20.297C99.3514 20.5243 99.8959 20.8675 100.36 21.3268C100.829 21.7861 101.193 22.3637 101.454 23.0598C101.714 23.7511 101.844 24.5607 101.844 25.4887V26.3197H92.6327V24.4447H98.9963C98.9963 24.0091 98.9016 23.6232 98.7122 23.287C98.5228 22.9509 98.26 22.6881 97.9239 22.4987C97.5924 22.3046 97.2065 22.2075 96.7662 22.2075C96.3069 22.2075 95.8997 22.314 95.5446 22.5271C95.1942 22.7354 94.9196 23.0172 94.7207 23.3723C94.5219 23.7226 94.4201 24.1133 94.4154 24.5441V26.3268C94.4154 26.8666 94.5148 27.333 94.7136 27.726C94.9172 28.119 95.2037 28.422 95.573 28.6351C95.9423 28.8481 96.3803 28.9547 96.8869 28.9547C97.2231 28.9547 97.5309 28.9073 97.8102 28.8126C98.0896 28.7179 98.3287 28.5759 98.5276 28.3865C98.7264 28.1971 98.8779 27.9651 98.9821 27.6905L101.78 27.8751C101.638 28.5475 101.347 29.1346 100.907 29.6365C100.471 30.1336 99.9078 30.5219 99.2165 30.8012C98.5299 31.0759 97.7368 31.2132 96.8372 31.2132Z" fill="#222222"/>
<path d="M82.4499 24.6933V31.0001H79.4243V20.091H82.3078V22.0157H82.4357C82.6772 21.3813 83.082 20.8794 83.6502 20.5101C84.2184 20.136 84.9073 19.949 85.7169 19.949C86.4745 19.949 87.135 20.1147 87.6985 20.4461C88.2619 20.7776 88.6999 21.2511 89.0124 21.8666C89.3249 22.4774 89.4811 23.2065 89.4811 24.0541V31.0001H86.4556V24.5939C86.4603 23.9262 86.2898 23.4054 85.9442 23.0314C85.5986 22.6526 85.1227 22.4632 84.5166 22.4632C84.1095 22.4632 83.7496 22.5508 83.4371 22.726C83.1293 22.9012 82.8879 23.1568 82.7127 23.493C82.5422 23.8244 82.4546 24.2245 82.4499 24.6933Z" fill="#222222"/>
<path d="M70.0085 24.6933V31.0001H66.9829V20.091H69.8664V22.0157H69.9943C70.2358 21.3813 70.6406 20.8794 71.2088 20.5101C71.7769 20.136 72.4659 19.949 73.2755 19.949C74.0331 19.949 74.6936 20.1147 75.2571 20.4461C75.8205 20.7776 76.2585 21.2511 76.571 21.8666C76.8835 22.4774 77.0397 23.2065 77.0397 24.0541V31.0001H74.0142V24.5939C74.0189 23.9262 73.8484 23.4054 73.5028 23.0314C73.1572 22.6526 72.6813 22.4632 72.0752 22.4632C71.668 22.4632 71.3082 22.5508 70.9957 22.726C70.6879 22.9012 70.4465 23.1568 70.2713 23.493C70.1008 23.8244 70.0132 24.2245 70.0085 24.6933Z" fill="#222222"/>
<path d="M59.6462 31.2132C58.543 31.2132 57.5889 30.9788 56.784 30.5101C55.9838 30.0366 55.3659 29.3784 54.9303 28.5356C54.4947 27.6881 54.2769 26.7056 54.2769 25.5882C54.2769 24.4613 54.4947 23.4764 54.9303 22.6336C55.3659 21.7861 55.9838 21.128 56.784 20.6592C57.5889 20.1857 58.543 19.949 59.6462 19.949C60.7494 19.949 61.7011 20.1857 62.5013 20.6592C63.3062 21.128 63.9265 21.7861 64.3621 22.6336C64.7977 23.4764 65.0155 24.4613 65.0155 25.5882C65.0155 26.7056 64.7977 27.6881 64.3621 28.5356C63.9265 29.3784 63.3062 30.0366 62.5013 30.5101C61.7011 30.9788 60.7494 31.2132 59.6462 31.2132ZM59.6604 28.8694C60.1623 28.8694 60.5813 28.7274 60.9175 28.4433C61.2537 28.1545 61.507 27.7615 61.6774 27.2643C61.8526 26.7672 61.9402 26.2013 61.9402 25.5669C61.9402 24.9324 61.8526 24.3666 61.6774 23.8694C61.507 23.3723 61.2537 22.9793 60.9175 22.6905C60.5813 22.4016 60.1623 22.2572 59.6604 22.2572C59.1537 22.2572 58.7276 22.4016 58.382 22.6905C58.0411 22.9793 57.783 23.3723 57.6078 23.8694C57.4374 24.3666 57.3521 24.9324 57.3521 25.5669C57.3521 26.2013 57.4374 26.7672 57.6078 27.2643C57.783 27.7615 58.0411 28.1545 58.382 28.4433C58.7276 28.7274 59.1537 28.8694 59.6604 28.8694Z" fill="#222222"/>
<path d="M52.5687 21.5469H49.4579C49.4011 21.1445 49.2851 20.787 49.1099 20.4745C48.9347 20.1573 48.7098 19.8874 48.4352 19.6648C48.1606 19.4423 47.8434 19.2718 47.4835 19.1535C47.1284 19.0351 46.7425 18.9759 46.3258 18.9759C45.573 18.9759 44.9172 19.1629 44.3585 19.537C43.7998 19.9063 43.3666 20.4461 43.0588 21.1563C42.751 21.8618 42.5971 22.7188 42.5971 23.7273C42.5971 24.7643 42.751 25.6355 43.0588 26.341C43.3713 27.0465 43.8069 27.5791 44.3656 27.939C44.9243 28.2988 45.5706 28.4787 46.3045 28.4787C46.7165 28.4787 47.0976 28.4243 47.448 28.3154C47.8031 28.2065 48.118 28.0479 48.3926 27.8395C48.6672 27.6265 48.8945 27.3684 49.0744 27.0654C49.2591 26.7624 49.3869 26.4167 49.4579 26.0285L52.5687 26.0427C52.4882 26.7103 52.287 27.3542 51.965 27.9745C51.6478 28.59 51.2193 29.1416 50.6795 29.6293C50.1445 30.1123 49.5053 30.4958 48.7619 30.7799C48.0233 31.0592 47.1876 31.1989 46.2548 31.1989C44.9575 31.1989 43.7974 30.9054 42.7747 30.3182C41.7567 29.7311 40.9518 28.8812 40.3599 27.7685C39.7728 26.6558 39.4792 25.3088 39.4792 23.7273C39.4792 22.1412 39.7775 20.7917 40.3741 19.679C40.9707 18.5663 41.7804 17.7188 42.8031 17.1364C43.8258 16.5493 44.9764 16.2557 46.2548 16.2557C47.0976 16.2557 47.8789 16.3741 48.5986 16.6109C49.323 16.8476 49.9646 17.1932 50.5233 17.6478C51.082 18.0976 51.5365 18.6492 51.8869 19.3026C52.242 19.956 52.4693 20.7041 52.5687 21.5469Z" fill="#222222"/>
<defs>
<linearGradient id="paint0_linear_186_200" x1="113.5" y1="0" x2="113.5" y2="48" gradientUnits="userSpaceOnUse">
<stop stop-color="#290059"/>
<stop offset="1" stop-color="#FF971D"/>
</linearGradient>
</defs>
</svg>
