<svg width="560" height="230" viewBox="0 0 560 230" fill="none" xmlns="http://www.w3.org/2000/svg">
<path d="M0 15C0 6.71572 6.71573 0 15 0H545C553.284 0 560 6.71573 560 15V215C560 223.284 553.284 230 545 230H15C6.71574 230 0 223.284 0 215V15Z" fill="#EDEDED"/>
<path d="M241.954 47.0909C241.604 47.0909 241.28 47.0625 240.981 47.0057C240.688 46.9536 240.453 46.8921 240.278 46.8211L240.875 44.8182C241.249 44.9271 241.583 44.9792 241.876 44.9745C242.17 44.9697 242.428 44.8774 242.65 44.6975C242.878 44.5223 243.069 44.2287 243.226 43.8168L243.446 43.2273L239.49 32.0909H242.217L244.731 40.3296H244.845L247.366 32.0909H250.101L245.733 44.3211C245.529 44.8987 245.259 45.3935 244.923 45.8054C244.587 46.2221 244.175 46.5393 243.687 46.7571C243.204 46.9797 242.627 47.0909 241.954 47.0909Z" fill="#1E1E1E"/>
<path d="M232.094 43V32.0909H234.587V33.9091H234.701C234.9 33.2794 235.241 32.7941 235.724 32.4532C236.211 32.1075 236.768 31.9347 237.393 31.9347C237.535 31.9347 237.693 31.9418 237.869 31.956C238.049 31.9655 238.198 31.982 238.316 32.0057V34.3708C238.207 34.3329 238.034 34.2997 237.798 34.2713C237.566 34.2382 237.341 34.2216 237.123 34.2216C236.654 34.2216 236.233 34.3234 235.859 34.527C235.489 34.7259 235.198 35.0029 234.985 35.358C234.772 35.7131 234.665 36.1227 234.665 36.5867V43H232.094Z" fill="#1E1E1E"/>
<path d="M224.685 43.2131C223.62 43.2131 222.696 42.9787 221.915 42.5099C221.134 42.0412 220.528 41.3854 220.097 40.5426C219.671 39.6998 219.458 38.715 219.458 37.5881C219.458 36.4612 219.671 35.4739 220.097 34.6264C220.528 33.7789 221.134 33.1207 221.915 32.652C222.696 32.1832 223.62 31.9489 224.685 31.9489C225.75 31.9489 226.674 32.1832 227.455 32.652C228.236 33.1207 228.84 33.7789 229.266 34.6264C229.697 35.4739 229.912 36.4612 229.912 37.5881C229.912 38.715 229.697 39.6998 229.266 40.5426C228.84 41.3854 228.236 42.0412 227.455 42.5099C226.674 42.9787 225.75 43.2131 224.685 43.2131ZM224.699 41.1534C225.277 41.1534 225.76 40.9948 226.148 40.6775C226.536 40.3556 226.825 39.9247 227.015 39.3849C227.209 38.8452 227.306 38.2438 227.306 37.581C227.306 36.9133 227.209 36.3096 227.015 35.7699C226.825 35.2254 226.536 34.7921 226.148 34.4702C225.76 34.1482 225.277 33.9872 224.699 33.9872C224.107 33.9872 223.615 34.1482 223.222 34.4702C222.834 34.7921 222.543 35.2254 222.348 35.7699C222.159 36.3096 222.064 36.9133 222.064 37.581C222.064 38.2438 222.159 38.8452 222.348 39.3849C222.543 39.9247 222.834 40.3556 223.222 40.6775C223.615 40.9948 224.107 41.1534 224.699 41.1534Z" fill="#1E1E1E"/>
<path d="M217.893 32.0909V34.0796H211.622V32.0909H217.893ZM213.17 29.4773H215.741V39.7188C215.741 40.0644 215.793 40.3296 215.898 40.5142C216.007 40.6942 216.149 40.8173 216.324 40.8835C216.499 40.9498 216.693 40.983 216.906 40.983C217.067 40.983 217.214 40.9711 217.346 40.9475C217.484 40.9238 217.588 40.9025 217.659 40.8835L218.092 42.8935C217.955 42.9408 217.758 42.9929 217.503 43.0497C217.252 43.1066 216.944 43.1397 216.579 43.1492C215.936 43.1681 215.355 43.071 214.839 42.858C214.323 42.6402 213.914 42.304 213.611 41.8495C213.312 41.3949 213.166 40.8267 213.17 40.1449V29.4773Z" fill="#1E1E1E"/>
<path d="M210.092 34.9744L207.748 35.2301C207.682 34.9934 207.566 34.7708 207.4 34.5625C207.239 34.3542 207.021 34.1861 206.746 34.0582C206.472 33.9304 206.136 33.8665 205.738 33.8665C205.203 33.8665 204.753 33.9825 204.388 34.2145C204.029 34.4465 203.851 34.7471 203.856 35.1165C203.851 35.4337 203.967 35.6917 204.204 35.8906C204.445 36.0895 204.843 36.2528 205.397 36.3807L207.258 36.7784C208.29 37.0009 209.057 37.3537 209.559 37.8366C210.066 38.3196 210.321 38.9517 210.326 39.7329C210.321 40.4195 210.12 41.0256 209.722 41.5511C209.329 42.072 208.782 42.4792 208.082 42.7727C207.381 43.0663 206.576 43.2131 205.667 43.2131C204.332 43.2131 203.257 42.9337 202.442 42.375C201.628 41.8115 201.143 41.0279 200.986 40.0241L203.494 39.7827C203.607 40.2751 203.849 40.6468 204.218 40.8977C204.587 41.1487 205.068 41.2741 205.66 41.2741C206.271 41.2741 206.761 41.1487 207.13 40.8977C207.504 40.6468 207.691 40.3366 207.691 39.9673C207.691 39.6548 207.57 39.3968 207.329 39.1932C207.092 38.9896 206.723 38.8333 206.221 38.7244L204.36 38.3338C203.314 38.116 202.539 37.749 202.038 37.2329C201.536 36.7121 201.287 36.054 201.292 35.2585C201.287 34.5862 201.469 34.0038 201.839 33.5114C202.213 33.0142 202.731 32.6307 203.394 32.3608C204.062 32.0862 204.831 31.9489 205.702 31.9489C206.981 31.9489 207.987 32.2211 208.721 32.7656C209.459 33.3101 209.916 34.0464 210.092 34.9744Z" fill="#1E1E1E"/>
<path d="M196.255 43V32.091H198.826V43H196.255ZM197.547 30.5427C197.14 30.5427 196.79 30.4077 196.496 30.1378C196.202 29.8632 196.056 29.5341 196.056 29.1506C196.056 28.7624 196.202 28.4333 196.496 28.1634C196.79 27.8888 197.14 27.7515 197.547 27.7515C197.959 27.7515 198.309 27.8888 198.598 28.1634C198.892 28.4333 199.039 28.7624 199.039 29.1506C199.039 29.5341 198.892 29.8632 198.598 30.1378C198.309 30.4077 197.959 30.5427 197.547 30.5427Z" fill="#1E1E1E"/>
<path d="M181.485 43V28.4546H184.12V34.6123H190.86V28.4546H193.502V43H190.86V36.8211H184.12V43H181.485Z" fill="#1E1E1E"/>
<path d="M166.794 36.6079V43H164.223V32.0909H166.681V33.9446H166.808C167.059 33.3338 167.46 32.8485 168.009 32.4886C168.563 32.1288 169.247 31.9489 170.061 31.9489C170.814 31.9489 171.47 32.1098 172.029 32.4318C172.592 32.7538 173.028 33.2202 173.335 33.831C173.648 34.4418 173.802 35.1828 173.797 36.054V43H171.226V36.4517C171.226 35.7225 171.037 35.152 170.658 34.74C170.284 34.3281 169.765 34.1221 169.103 34.1221C168.653 34.1221 168.253 34.2216 167.902 34.4204C167.557 34.6146 167.284 34.8963 167.085 35.2656C166.891 35.6349 166.794 36.0824 166.794 36.6079Z" fill="#1E1E1E"/>
<path d="M156.814 43.2131C155.748 43.2131 154.825 42.9787 154.044 42.5099C153.263 42.0412 152.657 41.3854 152.226 40.5426C151.8 39.6998 151.587 38.715 151.587 37.5881C151.587 36.4612 151.8 35.4739 152.226 34.6264C152.657 33.7789 153.263 33.1207 154.044 32.652C154.825 32.1832 155.748 31.9489 156.814 31.9489C157.879 31.9489 158.802 32.1832 159.584 32.652C160.365 33.1207 160.969 33.7789 161.395 34.6264C161.826 35.4739 162.041 36.4612 162.041 37.5881C162.041 38.715 161.826 39.6998 161.395 40.5426C160.969 41.3854 160.365 42.0412 159.584 42.5099C158.802 42.9787 157.879 43.2131 156.814 43.2131ZM156.828 41.1534C157.406 41.1534 157.889 40.9948 158.277 40.6775C158.665 40.3556 158.954 39.9247 159.143 39.3849C159.337 38.8452 159.435 38.2438 159.435 37.581C159.435 36.9133 159.337 36.3096 159.143 35.7699C158.954 35.2254 158.665 34.7921 158.277 34.4702C157.889 34.1482 157.406 33.9872 156.828 33.9872C156.236 33.9872 155.744 34.1482 155.351 34.4702C154.962 34.7921 154.671 35.2254 154.477 35.7699C154.288 36.3096 154.193 36.9133 154.193 37.581C154.193 38.2438 154.288 38.8452 154.477 39.3849C154.671 39.9247 154.962 40.3556 155.351 40.6775C155.744 40.9948 156.236 41.1534 156.828 41.1534Z" fill="#1E1E1E"/>
<path d="M146.84 43V32.091H149.411V43H146.84ZM148.133 30.5427C147.726 30.5427 147.376 30.4077 147.082 30.1378C146.788 29.8632 146.642 29.5341 146.642 29.1506C146.642 28.7624 146.788 28.4333 147.082 28.1634C147.376 27.8888 147.726 27.7515 148.133 27.7515C148.545 27.7515 148.895 27.8888 149.184 28.1634C149.478 28.4333 149.625 28.7624 149.625 29.1506C149.625 29.5341 149.478 29.8632 149.184 30.1378C148.895 30.4077 148.545 30.5427 148.133 30.5427Z" fill="#1E1E1E"/>
<path d="M144.69 32.0909V34.0796H138.419V32.0909H144.69ZM139.967 29.4773H142.538V39.7188C142.538 40.0644 142.59 40.3296 142.695 40.5142C142.803 40.6942 142.945 40.8173 143.121 40.8835C143.296 40.9498 143.49 40.983 143.703 40.983C143.864 40.983 144.011 40.9711 144.143 40.9475C144.281 40.9238 144.385 40.9025 144.456 40.8835L144.889 42.8935C144.752 42.9408 144.555 42.9929 144.3 43.0497C144.049 43.1066 143.741 43.1397 143.376 43.1492C142.732 43.1681 142.152 43.071 141.636 42.858C141.12 42.6402 140.711 42.304 140.408 41.8495C140.109 41.3949 139.963 40.8267 139.967 40.1449V29.4773Z" fill="#1E1E1E"/>
<path d="M132.458 43.2131C131.369 43.2131 130.434 42.9739 129.653 42.4957C128.876 42.0175 128.277 41.357 127.856 40.5142C127.439 39.6667 127.231 38.6913 127.231 37.5881C127.231 36.4801 127.444 35.5024 127.87 34.6548C128.296 33.8025 128.898 33.1397 129.674 32.6662C130.456 32.188 131.379 31.9489 132.444 31.9489C133.33 31.9489 134.113 32.1122 134.795 32.4389C135.482 32.7609 136.028 33.2178 136.436 33.8096C136.843 34.3968 137.075 35.0833 137.132 35.8693H134.674C134.575 35.3437 134.338 34.9058 133.964 34.5554C133.595 34.2003 133.1 34.0227 132.48 34.0227C131.954 34.0227 131.492 34.1648 131.095 34.4489C130.697 34.7282 130.387 35.1307 130.164 35.6562C129.947 36.1818 129.838 36.8115 129.838 37.5454C129.838 38.2888 129.947 38.928 130.164 39.4631C130.382 39.9934 130.688 40.4029 131.081 40.6917C131.478 40.9758 131.945 41.1179 132.48 41.1179C132.858 41.1179 133.197 41.0469 133.495 40.9048C133.798 40.758 134.052 40.5473 134.255 40.2727C134.459 39.9981 134.599 39.6643 134.674 39.2713H137.132C137.07 40.0431 136.843 40.7273 136.45 41.3239C136.057 41.9157 135.522 42.3797 134.845 42.7159C134.168 43.0473 133.372 43.2131 132.458 43.2131Z" fill="#1E1E1E"/>
<path d="M119.355 43.2202C118.663 43.2202 118.041 43.0971 117.487 42.8508C116.938 42.5999 116.502 42.2306 116.18 41.7429C115.863 41.2552 115.704 40.6539 115.704 39.9389C115.704 39.3234 115.818 38.8144 116.045 38.4119C116.272 38.0095 116.582 37.6875 116.975 37.446C117.368 37.2045 117.811 37.0222 118.304 36.8991C118.801 36.7713 119.314 36.679 119.845 36.6221C120.484 36.5559 121.002 36.4967 121.4 36.4446C121.798 36.3878 122.087 36.3025 122.267 36.1889C122.451 36.0705 122.544 35.8882 122.544 35.642V35.5994C122.544 35.0644 122.385 34.6501 122.068 34.3565C121.751 34.063 121.294 33.9162 120.697 33.9162C120.067 33.9162 119.568 34.0535 119.198 34.3281C118.834 34.6027 118.588 34.9271 118.46 35.3011L116.059 34.9602C116.249 34.2973 116.561 33.7434 116.997 33.2983C117.432 32.8485 117.965 32.5123 118.595 32.2898C119.224 32.0625 119.92 31.9489 120.683 31.9489C121.208 31.9489 121.732 32.0104 122.252 32.1335C122.773 32.2566 123.249 32.4602 123.68 32.7443C124.111 33.0237 124.456 33.4048 124.717 33.8878C124.982 34.3707 125.115 34.9744 125.115 35.6989V43H122.643V41.5014H122.558C122.402 41.8044 122.181 42.0885 121.897 42.3537C121.618 42.6141 121.265 42.8248 120.839 42.9858C120.418 43.142 119.923 43.2202 119.355 43.2202ZM120.022 41.331C120.538 41.331 120.986 41.2292 121.365 41.0256C121.743 40.8172 122.035 40.5426 122.238 40.2017C122.447 39.8608 122.551 39.4891 122.551 39.0866V37.8011C122.47 37.8674 122.333 37.929 122.139 37.9858C121.949 38.0426 121.736 38.0923 121.5 38.1349C121.263 38.1775 121.028 38.2154 120.796 38.2486C120.564 38.2817 120.363 38.3101 120.193 38.3338C119.809 38.3859 119.466 38.4711 119.163 38.5895C118.86 38.7078 118.621 38.8736 118.446 39.0866C118.27 39.295 118.183 39.5649 118.183 39.8963C118.183 40.3698 118.356 40.7273 118.701 40.9687C119.047 41.2102 119.487 41.331 120.022 41.331Z" fill="#1E1E1E"/>
<path d="M113.861 34.9744L111.517 35.2301C111.451 34.9934 111.335 34.7708 111.169 34.5625C111.008 34.3542 110.791 34.1861 110.516 34.0582C110.241 33.9304 109.905 33.8665 109.507 33.8665C108.972 33.8665 108.523 33.9825 108.158 34.2145C107.798 34.4465 107.621 34.7471 107.625 35.1165C107.621 35.4337 107.737 35.6917 107.973 35.8906C108.215 36.0895 108.613 36.2528 109.166 36.3807L111.027 36.7784C112.059 37.0009 112.827 37.3537 113.328 37.8366C113.835 38.3196 114.091 38.9517 114.095 39.7329C114.091 40.4195 113.89 41.0256 113.492 41.5511C113.099 42.072 112.552 42.4792 111.851 42.7727C111.15 43.0663 110.345 43.2131 109.436 43.2131C108.101 43.2131 107.026 42.9337 106.212 42.375C105.398 41.8115 104.912 41.0279 104.756 40.0241L107.263 39.7827C107.377 40.2751 107.618 40.6468 107.988 40.8977C108.357 41.1487 108.837 41.2741 109.429 41.2741C110.04 41.2741 110.53 41.1487 110.899 40.8977C111.273 40.6468 111.461 40.3366 111.461 39.9673C111.461 39.6548 111.34 39.3968 111.098 39.1932C110.862 38.9896 110.492 38.8333 109.99 38.7244L108.13 38.3338C107.083 38.116 106.309 37.749 105.807 37.2329C105.305 36.7121 105.057 36.054 105.061 35.2585C105.057 34.5862 105.239 34.0038 105.608 33.5114C105.982 33.0142 106.501 32.6307 107.164 32.3608C107.831 32.0862 108.601 31.9489 109.472 31.9489C110.75 31.9489 111.756 32.2211 112.49 32.7656C113.229 33.3101 113.686 34.0464 113.861 34.9744Z" fill="#1E1E1E"/>
<path d="M95.6224 36.6079V43H93.0514V32.0909H95.5088V33.9446H95.6366C95.8876 33.3338 96.2877 32.8485 96.8369 32.4886C97.3909 32.1288 98.0751 31.9489 98.8895 31.9489C99.6423 31.9489 100.298 32.1098 100.857 32.4318C101.42 32.7538 101.856 33.2202 102.164 33.831C102.476 34.4418 102.63 35.1828 102.625 36.054V43H100.054V36.4517C100.054 35.7225 99.8648 35.152 99.486 34.74C99.112 34.3281 98.5935 34.1221 97.9307 34.1221C97.4808 34.1221 97.0807 34.2216 96.7304 34.4204C96.3847 34.6146 96.1125 34.8963 95.9136 35.2656C95.7195 35.6349 95.6224 36.0824 95.6224 36.6079Z" fill="#1E1E1E"/>
<path d="M84.7062 43.2202C84.0149 43.2202 83.3923 43.0971 82.8383 42.8508C82.2891 42.5999 81.8535 42.2306 81.5315 41.7429C81.2143 41.2552 81.0557 40.6539 81.0557 39.9389C81.0557 39.3234 81.1693 38.8144 81.3966 38.4119C81.6238 38.0095 81.934 37.6875 82.327 37.446C82.72 37.2045 83.1627 37.0222 83.6551 36.8991C84.1523 36.7713 84.666 36.679 85.1963 36.6221C85.8355 36.5559 86.354 36.4967 86.7517 36.4446C87.1494 36.3878 87.4382 36.3025 87.6182 36.1889C87.8028 36.0705 87.8952 35.8882 87.8952 35.642V35.5994C87.8952 35.0644 87.7365 34.6501 87.4193 34.3565C87.1021 34.063 86.6452 33.9162 86.0486 33.9162C85.4188 33.9162 84.9193 34.0535 84.55 34.3281C84.1854 34.6027 83.9392 34.9271 83.8113 35.3011L81.4108 34.9602C81.6002 34.2973 81.9127 33.7434 82.3483 33.2983C82.7839 32.8485 83.3166 32.5123 83.9463 32.2898C84.576 32.0625 85.272 31.9489 86.0344 31.9489C86.5599 31.9489 87.0831 32.0104 87.604 32.1335C88.1248 32.2566 88.6006 32.4602 89.0315 32.7443C89.4624 33.0237 89.808 33.4048 90.0684 33.8878C90.3336 34.3707 90.4662 34.9744 90.4662 35.6989V43H87.9946V41.5014H87.9094C87.7531 41.8044 87.5329 42.0885 87.2488 42.3537C86.9695 42.6141 86.6167 42.8248 86.1906 42.9858C85.7692 43.142 85.2744 43.2202 84.7062 43.2202ZM85.3738 41.331C85.8899 41.331 86.3374 41.2292 86.7162 41.0256C87.095 40.8172 87.3862 40.5426 87.5898 40.2017C87.7981 39.8608 87.9023 39.4891 87.9023 39.0866V37.8011C87.8218 37.8674 87.6845 37.929 87.4903 37.9858C87.3009 38.0426 87.0879 38.0923 86.8511 38.1349C86.6144 38.1775 86.38 38.2154 86.148 38.2486C85.916 38.2817 85.7148 38.3101 85.5443 38.3338C85.1608 38.3859 84.8175 38.4711 84.5145 38.5895C84.2114 38.7078 83.9723 38.8736 83.7971 39.0866C83.622 39.295 83.5344 39.5649 83.5344 39.8963C83.5344 40.3698 83.7072 40.7273 84.0528 40.9687C84.3985 41.2102 84.8388 41.331 85.3738 41.331Z" fill="#1E1E1E"/>
<path d="M73.8326 43V32.0909H76.3255V33.9091H76.4392C76.638 33.2794 76.9789 32.7941 77.4619 32.4532C77.9496 32.1075 78.5059 31.9347 79.1309 31.9347C79.273 31.9347 79.4316 31.9418 79.6068 31.956C79.7867 31.9655 79.9359 31.982 80.0542 32.0057V34.3708C79.9453 34.3329 79.7725 34.2997 79.5358 34.2713C79.3038 34.2382 79.0789 34.2216 78.8611 34.2216C78.3923 34.2216 77.9709 34.3234 77.5968 34.527C77.2275 34.7259 76.9363 35.0029 76.7233 35.358C76.5102 35.7131 76.4037 36.1227 76.4037 36.5867V43H73.8326Z" fill="#1E1E1E"/>
<path d="M61.2368 30.6634V28.4546H72.8419V30.6634H68.3462V43H65.7326V30.6634H61.2368Z" fill="#1E1E1E"/>
<path fill-rule="evenodd" clip-rule="evenodd" d="M560 196H0V195H560V196Z" fill="#A8A6A9"/>
<path d="M335 27H355V47H335V27Z" fill="#290059"/>
<path d="M420.277 43.1818C419.436 43.1818 418.711 42.9962 418.101 42.625C417.495 42.25 417.027 41.7272 416.698 41.0568C416.372 40.3825 416.209 39.5985 416.209 38.7045C416.209 37.8106 416.372 37.0227 416.698 36.3409C417.027 35.6553 417.486 35.1212 418.073 34.7386C418.664 34.3522 419.353 34.1591 420.141 34.1591C420.595 34.1591 421.044 34.2348 421.487 34.3863C421.931 34.5378 422.334 34.7841 422.698 35.125C423.061 35.4621 423.351 35.9091 423.567 36.4659C423.783 37.0227 423.891 37.7083 423.891 38.5227V39.0909H417.164V37.9318H422.527C422.527 37.4394 422.429 37 422.232 36.6136C422.039 36.2272 421.762 35.9223 421.402 35.6988C421.046 35.4753 420.626 35.3636 420.141 35.3636C419.607 35.3636 419.145 35.4962 418.754 35.7613C418.368 36.0227 418.071 36.3636 417.862 36.7841C417.654 37.2045 417.55 37.6553 417.55 38.1363V38.9091C417.55 39.5681 417.664 40.1269 417.891 40.5852C418.122 41.0397 418.442 41.3863 418.851 41.625C419.26 41.8598 419.736 41.9772 420.277 41.9772C420.629 41.9772 420.948 41.928 421.232 41.8295C421.52 41.7272 421.768 41.5757 421.976 41.375C422.184 41.1704 422.345 40.9166 422.459 40.6136L423.754 40.9772C423.618 41.4166 423.389 41.803 423.067 42.1363C422.745 42.4659 422.347 42.7235 421.874 42.9091C421.4 43.0909 420.868 43.1818 420.277 43.1818Z" fill="black"/>
<path d="M415.161 34.2727L411.933 43H410.57L407.343 34.2727H408.797L411.206 41.2273H411.297L413.706 34.2727H415.161Z" fill="black"/>
<path d="M404.227 43V34.2727H405.568V43H404.227ZM404.909 32.8182C404.648 32.8182 404.422 32.7292 404.233 32.5511C404.047 32.3731 403.955 32.1591 403.955 31.9091C403.955 31.6591 404.047 31.4451 404.233 31.267C404.422 31.089 404.648 31 404.909 31C405.171 31 405.394 31.089 405.58 31.267C405.769 31.4451 405.864 31.6591 405.864 31.9091C405.864 32.1591 405.769 32.3731 405.58 32.5511C405.394 32.7292 405.171 32.8182 404.909 32.8182Z" fill="black"/>
<path d="M398.574 43.1818C397.733 43.1818 397.008 42.9962 396.398 42.625C395.792 42.25 395.324 41.7272 394.994 41.0568C394.669 40.3825 394.506 39.5985 394.506 38.7045C394.506 37.8106 394.669 37.0227 394.994 36.3409C395.324 35.6553 395.782 35.1212 396.369 34.7386C396.96 34.3522 397.65 34.1591 398.438 34.1591C398.892 34.1591 399.341 34.2348 399.784 34.3863C400.227 34.5378 400.631 34.7841 400.994 35.125C401.358 35.4621 401.648 35.9091 401.864 36.4659C402.08 37.0227 402.188 37.7083 402.188 38.5227V39.0909H395.46V37.9318H400.824C400.824 37.4394 400.726 37 400.529 36.6136C400.335 36.2272 400.059 35.9223 399.699 35.6988C399.343 35.4753 398.923 35.3636 398.438 35.3636C397.904 35.3636 397.441 35.4962 397.051 35.7613C396.665 36.0227 396.368 36.3636 396.159 36.7841C395.951 37.2045 395.847 37.6553 395.847 38.1363V38.9091C395.847 39.5681 395.96 40.1269 396.188 40.5852C396.419 41.0397 396.739 41.3863 397.148 41.625C397.557 41.8598 398.032 41.9772 398.574 41.9772C398.926 41.9772 399.244 41.928 399.529 41.8295C399.816 41.7272 400.065 41.5757 400.273 41.375C400.481 41.1704 400.642 40.9166 400.756 40.6136L402.051 40.9772C401.915 41.4166 401.686 41.803 401.364 42.1363C401.042 42.4659 400.644 42.7235 400.171 42.9091C399.697 43.0909 399.165 43.1818 398.574 43.1818Z" fill="black"/>
<path d="M389.523 43.1818C388.705 43.1818 388 42.9886 387.409 42.6022C386.818 42.2159 386.364 41.6837 386.046 41.0056C385.727 40.3276 385.568 39.553 385.568 38.6818C385.568 37.7954 385.731 37.0132 386.057 36.3352C386.387 35.6534 386.845 35.1212 387.432 34.7386C388.023 34.3522 388.712 34.1591 389.5 34.1591C390.114 34.1591 390.667 34.2727 391.159 34.5C391.652 34.7272 392.055 35.0454 392.369 35.4545C392.684 35.8636 392.879 36.3409 392.955 36.8863H391.614C391.512 36.4886 391.284 36.1363 390.932 35.8295C390.584 35.5189 390.114 35.3636 389.523 35.3636C389 35.3636 388.542 35.5 388.148 35.7727C387.758 36.0416 387.453 36.4223 387.233 36.9147C387.017 37.4034 386.909 37.9772 386.909 38.6363C386.909 39.3106 387.015 39.8977 387.227 40.3977C387.443 40.8977 387.746 41.286 388.137 41.5625C388.53 41.839 388.993 41.9772 389.523 41.9772C389.871 41.9772 390.188 41.9166 390.472 41.7954C390.756 41.6742 390.996 41.5 391.193 41.2727C391.39 41.0454 391.53 40.7727 391.614 40.4545H392.955C392.879 40.9697 392.691 41.4337 392.392 41.8466C392.097 42.2556 391.705 42.5814 391.216 42.8238C390.731 43.0625 390.167 43.1818 389.523 43.1818Z" fill="black"/>
<path d="M380.324 43.1818C379.483 43.1818 378.758 42.9962 378.148 42.625C377.542 42.25 377.074 41.7272 376.744 41.0568C376.419 40.3825 376.256 39.5985 376.256 38.7045C376.256 37.8106 376.419 37.0227 376.744 36.3409C377.074 35.6553 377.532 35.1212 378.119 34.7386C378.71 34.3522 379.4 34.1591 380.188 34.1591C380.642 34.1591 381.091 34.2348 381.534 34.3863C381.977 34.5378 382.381 34.7841 382.744 35.125C383.108 35.4621 383.398 35.9091 383.614 36.4659C383.83 37.0227 383.938 37.7083 383.938 38.5227V39.0909H377.21V37.9318H382.574C382.574 37.4394 382.476 37 382.279 36.6136C382.085 36.2272 381.809 35.9223 381.449 35.6988C381.093 35.4753 380.673 35.3636 380.188 35.3636C379.654 35.3636 379.191 35.4962 378.801 35.7613C378.415 36.0227 378.118 36.3636 377.909 36.7841C377.701 37.2045 377.597 37.6553 377.597 38.1363V38.9091C377.597 39.5681 377.71 40.1269 377.938 40.5852C378.169 41.0397 378.489 41.3863 378.898 41.625C379.307 41.8598 379.782 41.9772 380.324 41.9772C380.676 41.9772 380.994 41.928 381.279 41.8295C381.566 41.7272 381.815 41.5757 382.023 41.375C382.231 41.1704 382.392 40.9166 382.506 40.6136L383.801 40.9772C383.665 41.4166 383.436 41.803 383.114 42.1363C382.792 42.4659 382.394 42.7235 381.921 42.9091C381.447 43.0909 380.915 43.1818 380.324 43.1818Z" fill="black"/>
<path d="M366.706 43V31.3636H370.638C371.547 31.3636 372.293 31.519 372.877 31.8296C373.46 32.1364 373.892 32.5587 374.172 33.0966C374.452 33.6345 374.592 34.2462 374.592 34.9318C374.592 35.6174 374.452 36.2254 374.172 36.7557C373.892 37.286 373.462 37.7027 372.882 38.0057C372.303 38.3049 371.562 38.4546 370.661 38.4546H367.479V37.1818H370.615C371.236 37.1818 371.736 37.0909 372.115 36.9091C372.498 36.7273 372.774 36.4697 372.945 36.1364C373.119 35.7993 373.206 35.3977 373.206 34.9318C373.206 34.4659 373.119 34.0587 372.945 33.7102C372.77 33.3618 372.492 33.0928 372.109 32.9034C371.727 32.7102 371.221 32.6136 370.592 32.6136H368.115V43H366.706ZM372.183 37.7727L375.047 43H373.411L370.592 37.7727H372.183Z" fill="black"/>
<path d="M452 28H472V48H452V28Z" fill="#FF971D"/>
<path d="M521.492 44.1818C520.764 44.1818 520.122 43.9981 519.566 43.6307C519.009 43.2595 518.573 42.7368 518.259 42.0625C517.944 41.3845 517.787 40.5833 517.787 39.6591C517.787 38.7424 517.944 37.947 518.259 37.2727C518.573 36.5985 519.011 36.0777 519.571 35.7102C520.132 35.3428 520.78 35.1591 521.514 35.1591C522.083 35.1591 522.531 35.2538 522.861 35.4432C523.194 35.6288 523.448 35.8409 523.622 36.0796C523.8 36.3144 523.939 36.5076 524.037 36.6591H524.151V32.3636H525.492V44H524.196V42.6591H524.037C523.939 42.8182 523.798 43.019 523.617 43.2614C523.435 43.5 523.175 43.714 522.838 43.9034C522.501 44.089 522.052 44.1818 521.492 44.1818ZM521.673 42.9773C522.211 42.9773 522.666 42.8371 523.037 42.5568C523.408 42.2727 523.691 41.8807 523.884 41.3807C524.077 40.8769 524.173 40.2955 524.173 39.6364C524.173 38.9849 524.079 38.4148 523.889 37.9261C523.7 37.4337 523.42 37.0511 523.048 36.7784C522.677 36.5019 522.219 36.3636 521.673 36.3636C521.105 36.3636 520.632 36.5095 520.253 36.8011C519.878 37.089 519.596 37.4811 519.406 37.9773C519.221 38.4697 519.128 39.0227 519.128 39.6364C519.128 40.2576 519.223 40.822 519.412 41.3296C519.605 41.8333 519.889 42.2349 520.264 42.5341C520.643 42.8296 521.113 42.9773 521.673 42.9773Z" fill="black"/>
<path d="M510.178 38.7501V44.0001H508.837V35.2728H510.132V36.6365H510.246C510.45 36.1933 510.761 35.8372 511.178 35.5683C511.594 35.2955 512.132 35.1592 512.791 35.1592C513.382 35.1592 513.899 35.2804 514.342 35.5228C514.786 35.7615 515.13 36.1251 515.376 36.6137C515.623 37.0986 515.746 37.7122 515.746 38.4546V44.0001H514.405V38.5455C514.405 37.8599 514.227 37.3258 513.871 36.9433C513.515 36.5569 513.026 36.3637 512.405 36.3637C511.977 36.3637 511.594 36.4565 511.257 36.6421C510.924 36.8277 510.661 37.0986 510.467 37.4546C510.274 37.8107 510.178 38.2425 510.178 38.7501Z" fill="black"/>
<path d="M503.183 44.1819C502.343 44.1819 501.617 43.9963 501.007 43.6251C500.401 43.2501 499.933 42.7274 499.604 42.0569C499.278 41.3827 499.115 40.5986 499.115 39.7046C499.115 38.8107 499.278 38.0228 499.604 37.341C499.933 36.6554 500.392 36.1213 500.979 35.7387C501.57 35.3524 502.259 35.1592 503.047 35.1592C503.502 35.1592 503.95 35.2349 504.394 35.3865C504.837 35.538 505.24 35.7842 505.604 36.1251C505.968 36.4622 506.257 36.9092 506.473 37.466C506.689 38.0228 506.797 38.7084 506.797 39.5228V40.091H500.07V38.9319H505.433C505.433 38.4395 505.335 38.0001 505.138 37.6137C504.945 37.2274 504.668 36.9224 504.308 36.699C503.952 36.4755 503.532 36.3637 503.047 36.3637C502.513 36.3637 502.051 36.4963 501.661 36.7615C501.274 37.0228 500.977 37.3637 500.769 37.7842C500.56 38.2046 500.456 38.6554 500.456 39.1365V39.9092C500.456 40.5683 500.57 41.127 500.797 41.5853C501.028 42.0399 501.348 42.3865 501.757 42.6251C502.166 42.8599 502.642 42.9774 503.183 42.9774C503.536 42.9774 503.854 42.9281 504.138 42.8296C504.426 42.7274 504.674 42.5758 504.882 42.3751C505.091 42.1705 505.252 41.9168 505.365 41.6137L506.661 41.9774C506.524 42.4168 506.295 42.8031 505.973 43.1365C505.651 43.466 505.253 43.7236 504.78 43.9092C504.307 44.091 503.774 44.1819 503.183 44.1819Z" fill="black"/>
<path d="M495.867 35.2728C495.798 34.697 495.522 34.25 495.037 33.9319C494.552 33.6137 493.957 33.4546 493.253 33.4546C492.738 33.4546 492.287 33.5379 491.901 33.7046C491.518 33.8713 491.219 34.1004 491.003 34.3921C490.791 34.6838 490.685 35.0152 490.685 35.3864C490.685 35.697 490.759 35.9641 490.906 36.1875C491.058 36.4072 491.251 36.591 491.486 36.7387C491.721 36.8826 491.967 37.0019 492.225 37.0966C492.482 37.1875 492.719 37.2614 492.935 37.3182L494.117 37.6364C494.42 37.716 494.757 37.8258 495.128 37.966C495.503 38.1061 495.861 38.2974 496.202 38.5398C496.546 38.7785 496.831 39.0853 497.054 39.4603C497.278 39.8353 497.389 40.2955 497.389 40.841C497.389 41.4697 497.225 42.0379 496.895 42.5455C496.569 43.0531 496.092 43.4565 495.463 43.7557C494.838 44.055 494.079 44.2046 493.185 44.2046C492.351 44.2046 491.63 44.0701 491.02 43.8012C490.414 43.5322 489.937 43.1572 489.588 42.6762C489.243 42.1951 489.048 41.6364 489.003 41H490.457C490.495 41.4394 490.643 41.8031 490.901 42.091C491.162 42.375 491.492 42.5872 491.889 42.7273C492.291 42.8637 492.723 42.9319 493.185 42.9319C493.723 42.9319 494.206 42.8447 494.634 42.6705C495.062 42.4925 495.401 42.2463 495.651 41.9319C495.901 41.6137 496.026 41.2425 496.026 40.8182C496.026 40.4319 495.918 40.1175 495.702 39.875C495.486 39.6326 495.202 39.4357 494.85 39.2841C494.497 39.1326 494.117 39 493.707 38.8864L492.276 38.4773C491.367 38.216 490.647 37.8428 490.117 37.358C489.586 36.8732 489.321 36.2387 489.321 35.4546C489.321 34.8031 489.497 34.2349 489.85 33.75C490.206 33.2614 490.683 32.8826 491.281 32.6137C491.884 32.341 492.556 32.2046 493.298 32.2046C494.048 32.2046 494.715 32.3391 495.298 32.608C495.882 32.8732 496.344 33.2368 496.685 33.6989C497.029 34.161 497.211 34.6857 497.23 35.2728H495.867Z" fill="black"/>
<path d="M31.2539 176.139C30.5048 176.139 29.8668 175.935 29.3398 175.528C28.8128 175.117 28.4101 174.522 28.1317 173.743C27.8533 172.961 27.7141 172.016 27.7141 170.909C27.7141 169.809 27.8533 168.869 28.1317 168.09C28.4134 167.308 28.8178 166.711 29.3448 166.3C29.8751 165.886 30.5115 165.679 31.2539 165.679C31.9963 165.679 32.631 165.886 33.158 166.3C33.6883 166.711 34.0927 167.308 34.3711 168.09C34.6528 168.869 34.7937 169.809 34.7937 170.909C34.7937 172.016 34.6545 172.961 34.376 173.743C34.0976 174.522 33.6949 175.117 33.1679 175.528C32.641 175.935 32.0029 176.139 31.2539 176.139ZM31.2539 175.045C31.9963 175.045 32.573 174.687 32.984 173.972C33.395 173.256 33.6005 172.235 33.6005 170.909C33.6005 170.027 33.506 169.277 33.3171 168.657C33.1315 168.037 32.863 167.565 32.5117 167.24C32.1637 166.915 31.7444 166.753 31.2539 166.753C30.5181 166.753 29.943 167.116 29.5287 167.842C29.1144 168.564 28.9073 169.587 28.9073 170.909C28.9073 171.791 29.0001 172.54 29.1857 173.156C29.3713 173.773 29.6381 174.242 29.9861 174.563C30.3375 174.885 30.76 175.045 31.2539 175.045Z" fill="#888888"/>
<path d="M25.0046 165.818V176H23.7717V167.111H23.712L21.2262 168.761V167.508L23.7717 165.818H25.0046Z" fill="#888888"/>
<path d="M32.2383 146.139C31.4892 146.139 30.8512 145.935 30.3242 145.528C29.7972 145.117 29.3945 144.522 29.1161 143.743C28.8377 142.961 28.6985 142.016 28.6985 140.909C28.6985 139.809 28.8377 138.869 29.1161 138.09C29.3978 137.308 29.8022 136.711 30.3292 136.3C30.8595 135.886 31.4958 135.679 32.2383 135.679C32.9807 135.679 33.6154 135.886 34.1424 136.3C34.6727 136.711 35.077 137.308 35.3554 138.09C35.6372 138.869 35.778 139.809 35.778 140.909C35.778 142.016 35.6388 142.961 35.3604 143.743C35.082 144.522 34.6793 145.117 34.1523 145.528C33.6253 145.935 32.9873 146.139 32.2383 146.139ZM32.2383 145.045C32.9807 145.045 33.5574 144.687 33.9684 143.972C34.3794 143.256 34.5849 142.235 34.5849 140.909C34.5849 140.027 34.4904 139.277 34.3015 138.657C34.1159 138.037 33.8474 137.565 33.4961 137.24C33.1481 136.915 32.7288 136.753 32.2383 136.753C31.5025 136.753 30.9274 137.116 30.5131 137.842C30.0988 138.564 29.8917 139.587 29.8917 140.909C29.8917 141.791 29.9845 142.54 30.1701 143.156C30.3557 143.773 30.6225 144.242 30.9705 144.563C31.3218 144.885 31.7444 145.045 32.2383 145.045Z" fill="#888888"/>
<path d="M20.4407 146V145.105L23.8015 141.426C24.1959 140.995 24.5207 140.621 24.7759 140.303C25.0311 139.981 25.22 139.679 25.3427 139.398C25.4686 139.113 25.5316 138.814 25.5316 138.503C25.5316 138.145 25.4454 137.835 25.2731 137.573C25.104 137.311 24.872 137.109 24.577 136.967C24.2821 136.824 23.9506 136.753 23.5827 136.753C23.1916 136.753 22.8502 136.834 22.5586 136.996C22.2702 137.156 22.0465 137.379 21.8874 137.668C21.7316 137.956 21.6537 138.294 21.6537 138.682H20.4804C20.4804 138.085 20.618 137.562 20.8931 137.111C21.1682 136.66 21.5427 136.309 22.0167 136.057C22.4939 135.805 23.0292 135.679 23.6225 135.679C24.2191 135.679 24.7477 135.805 25.2084 136.057C25.6691 136.309 26.0304 136.648 26.2922 137.076C26.5541 137.504 26.685 137.979 26.685 138.503C26.685 138.877 26.617 139.244 26.4812 139.602C26.3486 139.956 26.1166 140.352 25.7851 140.79C25.457 141.224 25.0013 141.754 24.4179 142.381L22.131 144.827V144.906H26.864V146H20.4407Z" fill="#888888"/>
<path d="M32.457 116.139C31.708 116.139 31.0699 115.935 30.5429 115.528C30.016 115.117 29.6133 114.522 29.3349 113.743C29.0564 112.961 28.9172 112.016 28.9172 110.909C28.9172 109.809 29.0564 108.869 29.3349 108.09C29.6166 107.308 30.0209 106.711 30.5479 106.3C31.0782 105.886 31.7146 105.679 32.457 105.679C33.1994 105.679 33.8341 105.886 34.3611 106.3C34.8914 106.711 35.2958 107.308 35.5742 108.09C35.8559 108.869 35.9968 109.809 35.9968 110.909C35.9968 112.016 35.8576 112.961 35.5792 113.743C35.3008 114.522 34.8981 115.117 34.3711 115.528C33.8441 115.935 33.2061 116.139 32.457 116.139ZM32.457 115.045C33.1994 115.045 33.7761 114.687 34.1871 113.972C34.5981 113.256 34.8036 112.235 34.8036 110.909C34.8036 110.027 34.7091 109.277 34.5202 108.657C34.3346 108.037 34.0661 107.565 33.7148 107.24C33.3668 106.915 32.9475 106.753 32.457 106.753C31.7212 106.753 31.1462 107.116 30.7319 107.842C30.3176 108.564 30.1104 109.587 30.1104 110.909C30.1104 111.791 30.2032 112.54 30.3888 113.156C30.5744 113.773 30.8412 114.242 31.1893 114.563C31.5406 114.885 31.9632 115.045 32.457 115.045Z" fill="#888888"/>
<path d="M23.6623 116.139C23.006 116.139 22.421 116.026 21.9073 115.801C21.3969 115.576 20.9909 115.263 20.6892 114.861C20.3909 114.457 20.2285 113.988 20.202 113.455H21.4549C21.4814 113.783 21.5941 114.066 21.7929 114.305C21.9918 114.54 22.252 114.722 22.5735 114.852C22.895 114.981 23.2513 115.045 23.6424 115.045C24.0799 115.045 24.4677 114.969 24.8057 114.817C25.1438 114.664 25.4089 114.452 25.6012 114.18C25.7934 113.909 25.8895 113.594 25.8895 113.236C25.8895 112.861 25.7967 112.531 25.6111 112.246C25.4255 111.958 25.1537 111.733 24.7958 111.57C24.4378 111.408 24.0003 111.327 23.4833 111.327H22.6679V110.233H23.4833C23.8876 110.233 24.2423 110.16 24.5472 110.014C24.8554 109.868 25.0957 109.663 25.2681 109.398C25.4437 109.133 25.5316 108.821 25.5316 108.463C25.5316 108.118 25.4553 107.818 25.3029 107.563C25.1504 107.308 24.935 107.109 24.6566 106.967C24.3815 106.824 24.0567 106.753 23.6821 106.753C23.3308 106.753 22.9994 106.817 22.6878 106.947C22.3796 107.073 22.1277 107.257 21.9321 107.499C21.7366 107.737 21.6305 108.026 21.614 108.364H20.4208C20.4407 107.83 20.6014 107.363 20.903 106.962C21.2046 106.557 21.599 106.242 22.0863 106.017C22.5768 105.792 23.1154 105.679 23.702 105.679C24.3318 105.679 24.872 105.807 25.3228 106.062C25.7735 106.314 26.1199 106.647 26.3618 107.061C26.6038 107.475 26.7248 107.923 26.7248 108.403C26.7248 108.977 26.5739 109.466 26.2723 109.87C25.974 110.274 25.568 110.554 25.0543 110.71V110.79C25.6973 110.896 26.1994 111.169 26.5607 111.61C26.922 112.048 27.1026 112.589 27.1026 113.236C27.1026 113.789 26.9518 114.286 26.6502 114.727C26.3519 115.165 25.9442 115.509 25.4272 115.761C24.9101 116.013 24.3218 116.139 23.6623 116.139Z" fill="#888888"/>
<path d="M32.4912 86.1392C31.7421 86.1392 31.1041 85.9353 30.5771 85.5277C30.0501 85.1167 29.6474 84.5218 29.369 83.7429C29.0906 82.9607 28.9514 82.0161 28.9514 80.9091C28.9514 79.8087 29.0906 78.8691 29.369 78.0902C29.6508 77.308 30.0551 76.7114 30.5821 76.3004C31.1124 75.8861 31.7488 75.679 32.4912 75.679C33.2336 75.679 33.8683 75.8861 34.3953 76.3004C34.9256 76.7114 35.33 77.308 35.6084 78.0902C35.8901 78.8691 36.031 79.8087 36.031 80.9091C36.031 82.0161 35.8918 82.9607 35.6133 83.7429C35.3349 84.5218 34.9322 85.1167 34.4053 85.5277C33.8783 85.9353 33.2402 86.1392 32.4912 86.1392ZM32.4912 85.0454C33.2336 85.0454 33.8103 84.6875 34.2213 83.9716C34.6323 83.2557 34.8378 82.2348 34.8378 80.9091C34.8378 80.0274 34.7433 79.2767 34.5544 78.6569C34.3688 78.0371 34.1003 77.5648 33.749 77.24C33.401 76.9152 32.9817 76.7528 32.4912 76.7528C31.7554 76.7528 31.1803 77.1157 30.766 77.8416C30.3517 78.5641 30.1446 79.5866 30.1446 80.9091C30.1446 81.7907 30.2374 82.5398 30.423 83.1562C30.6086 83.7727 30.8754 84.2417 31.2234 84.5632C31.5748 84.8847 31.9973 85.0454 32.4912 85.0454Z" fill="#888888"/>
<path d="M19.9491 83.9119V82.8977L24.4235 75.8181H25.1593V77.3891H24.6622L21.2815 82.7386V82.8181H27.3071V83.9119H19.9491ZM24.7417 85.9999V83.6036V83.1313V75.8181H25.915V85.9999H24.7417Z" fill="#888888"/>
<path fill-rule="evenodd" clip-rule="evenodd" d="M46.002 171H45V170H46.002V171ZM50.01 171H48.006V170H50.01V171ZM54.018 171H52.014V170H54.018V171ZM58.026 171H56.022V170H58.026V171ZM62.034 171H60.03V170H62.034V171ZM66.042 171H64.038V170H66.042V171ZM70.05 171H68.046V170H70.05V171ZM74.058 171H72.054V170H74.058V171ZM78.066 171H76.062V170H78.066V171ZM82.074 171H80.07V170H82.074V171ZM86.082 171H84.078V170H86.082V171ZM90.09 171H88.086V170H90.09V171ZM94.098 171H92.094V170H94.098V171ZM98.106 171H96.102V170H98.106V171ZM102.114 171H100.11V170H102.114V171ZM106.122 171H104.118V170H106.122V171ZM110.13 171H108.126V170H110.13V171ZM114.138 171H112.134V170H114.138V171ZM118.146 171H116.142V170H118.146V171ZM122.154 171H120.15V170H122.154V171ZM126.162 171H124.158V170H126.162V171ZM130.17 171H128.166V170H130.17V171ZM134.178 171H132.174V170H134.178V171ZM138.186 171H136.182V170H138.186V171ZM142.194 171H140.19V170H142.194V171ZM146.202 171H144.198V170H146.202V171ZM150.21 171H148.206V170H150.21V171ZM154.218 171H152.214V170H154.218V171ZM158.226 171H156.222V170H158.226V171ZM162.234 171H160.23V170H162.234V171ZM166.242 171H164.238V170H166.242V171ZM170.25 171H168.246V170H170.25V171ZM174.258 171H172.254V170H174.258V171ZM178.266 171H176.262V170H178.266V171ZM182.274 171H180.27V170H182.274V171ZM186.282 171H184.278V170H186.282V171ZM190.29 171H188.286V170H190.29V171ZM194.298 171H192.294V170H194.298V171ZM198.306 171H196.302V170H198.306V171ZM202.314 171H200.31V170H202.314V171ZM206.322 171H204.318V170H206.322V171ZM210.33 171H208.326V170H210.33V171ZM214.338 171H212.334V170H214.338V171ZM218.346 171H216.342V170H218.346V171ZM222.354 171H220.35V170H222.354V171ZM226.362 171H224.358V170H226.362V171ZM230.37 171H228.366V170H230.37V171ZM234.378 171H232.374V170H234.378V171ZM238.386 171H236.382V170H238.386V171ZM242.394 171H240.39V170H242.394V171ZM246.402 171H244.398V170H246.402V171ZM250.41 171H248.406V170H250.41V171ZM254.418 171H252.414V170H254.418V171ZM258.426 171H256.422V170H258.426V171ZM262.434 171H260.43V170H262.434V171ZM266.442 171H264.438V170H266.442V171ZM270.45 171H268.446V170H270.45V171ZM274.458 171H272.454V170H274.458V171ZM278.466 171H276.462V170H278.466V171ZM282.474 171H280.47V170H282.474V171ZM286.482 171H284.478V170H286.482V171ZM290.49 171H288.486V170H290.49V171ZM294.498 171H292.494V170H294.498V171ZM298.506 171H296.502V170H298.506V171ZM302.514 171H300.51V170H302.514V171ZM306.522 171H304.518V170H306.522V171ZM310.53 171H308.526V170H310.53V171ZM314.538 171H312.534V170H314.538V171ZM318.546 171H316.542V170H318.546V171ZM322.554 171H320.55V170H322.554V171ZM326.562 171H324.558V170H326.562V171ZM330.57 171H328.566V170H330.57V171ZM334.578 171H332.574V170H334.578V171ZM338.586 171H336.582V170H338.586V171ZM342.594 171H340.59V170H342.594V171ZM346.602 171H344.598V170H346.602V171ZM350.61 171H348.606V170H350.61V171ZM354.618 171H352.614V170H354.618V171ZM358.626 171H356.622V170H358.626V171ZM362.634 171H360.63V170H362.634V171ZM366.642 171H364.638V170H366.642V171ZM370.65 171H368.646V170H370.65V171ZM374.658 171H372.654V170H374.658V171ZM378.666 171H376.662V170H378.666V171ZM382.674 171H380.67V170H382.674V171ZM386.682 171H384.678V170H386.682V171ZM390.69 171H388.686V170H390.69V171ZM394.698 171H392.694V170H394.698V171ZM398.706 171H396.702V170H398.706V171ZM402.714 171H400.71V170H402.714V171ZM406.722 171H404.718V170H406.722V171ZM410.73 171H408.726V170H410.73V171ZM414.738 171H412.734V170H414.738V171ZM418.746 171H416.742V170H418.746V171ZM422.754 171H420.75V170H422.754V171ZM426.762 171H424.758V170H426.762V171ZM430.77 171H428.766V170H430.77V171ZM434.778 171H432.774V170H434.778V171ZM438.786 171H436.782V170H438.786V171ZM442.794 171H440.79V170H442.794V171ZM446.802 171H444.798V170H446.802V171ZM450.81 171H448.806V170H450.81V171ZM454.818 171H452.814V170H454.818V171ZM458.826 171H456.822V170H458.826V171ZM462.834 171H460.83V170H462.834V171ZM466.842 171H464.838V170H466.842V171ZM470.85 171H468.846V170H470.85V171ZM474.858 171H472.854V170H474.858V171ZM478.866 171H476.862V170H478.866V171ZM482.874 171H480.87V170H482.874V171ZM486.882 171H484.878V170H486.882V171ZM490.89 171H488.886V170H490.89V171ZM494.898 171H492.894V170H494.898V171ZM498.906 171H496.902V170H498.906V171ZM502.914 171H500.91V170H502.914V171ZM506.922 171H504.918V170H506.922V171ZM510.93 171H508.926V170H510.93V171ZM514.938 171H512.934V170H514.938V171ZM518.946 171H516.942V170H518.946V171ZM522.954 171H520.95V170H522.954V171ZM526.962 171H524.958V170H526.962V171ZM530.97 171H528.966V170H530.97V171ZM534.978 171H532.974V170H534.978V171ZM538.986 171H536.982V170H538.986V171ZM542.994 171H540.99V170H542.994V171ZM546 171H544.998V170H546V171Z" fill="#888888"/>
<path fill-rule="evenodd" clip-rule="evenodd" d="M46.002 141H45V140H46.002V141ZM50.01 141H48.006V140H50.01V141ZM54.018 141H52.014V140H54.018V141ZM58.026 141H56.022V140H58.026V141ZM62.034 141H60.03V140H62.034V141ZM66.042 141H64.038V140H66.042V141ZM70.05 141H68.046V140H70.05V141ZM74.058 141H72.054V140H74.058V141ZM78.066 141H76.062V140H78.066V141ZM82.074 141H80.07V140H82.074V141ZM86.082 141H84.078V140H86.082V141ZM90.09 141H88.086V140H90.09V141ZM94.098 141H92.094V140H94.098V141ZM98.106 141H96.102V140H98.106V141ZM102.114 141H100.11V140H102.114V141ZM106.122 141H104.118V140H106.122V141ZM110.13 141H108.126V140H110.13V141ZM114.138 141H112.134V140H114.138V141ZM118.146 141H116.142V140H118.146V141ZM122.154 141H120.15V140H122.154V141ZM126.162 141H124.158V140H126.162V141ZM130.17 141H128.166V140H130.17V141ZM134.178 141H132.174V140H134.178V141ZM138.186 141H136.182V140H138.186V141ZM142.194 141H140.19V140H142.194V141ZM146.202 141H144.198V140H146.202V141ZM150.21 141H148.206V140H150.21V141ZM154.218 141H152.214V140H154.218V141ZM158.226 141H156.222V140H158.226V141ZM162.234 141H160.23V140H162.234V141ZM166.242 141H164.238V140H166.242V141ZM170.25 141H168.246V140H170.25V141ZM174.258 141H172.254V140H174.258V141ZM178.266 141H176.262V140H178.266V141ZM182.274 141H180.27V140H182.274V141ZM186.282 141H184.278V140H186.282V141ZM190.29 141H188.286V140H190.29V141ZM194.298 141H192.294V140H194.298V141ZM198.306 141H196.302V140H198.306V141ZM202.314 141H200.31V140H202.314V141ZM206.322 141H204.318V140H206.322V141ZM210.33 141H208.326V140H210.33V141ZM214.338 141H212.334V140H214.338V141ZM218.346 141H216.342V140H218.346V141ZM222.354 141H220.35V140H222.354V141ZM226.362 141H224.358V140H226.362V141ZM230.37 141H228.366V140H230.37V141ZM234.378 141H232.374V140H234.378V141ZM238.386 141H236.382V140H238.386V141ZM242.394 141H240.39V140H242.394V141ZM246.402 141H244.398V140H246.402V141ZM250.41 141H248.406V140H250.41V141ZM254.418 141H252.414V140H254.418V141ZM258.426 141H256.422V140H258.426V141ZM262.434 141H260.43V140H262.434V141ZM266.442 141H264.438V140H266.442V141ZM270.45 141H268.446V140H270.45V141ZM274.458 141H272.454V140H274.458V141ZM278.466 141H276.462V140H278.466V141ZM282.474 141H280.47V140H282.474V141ZM286.482 141H284.478V140H286.482V141ZM290.49 141H288.486V140H290.49V141ZM294.498 141H292.494V140H294.498V141ZM298.506 141H296.502V140H298.506V141ZM302.514 141H300.51V140H302.514V141ZM306.522 141H304.518V140H306.522V141ZM310.53 141H308.526V140H310.53V141ZM314.538 141H312.534V140H314.538V141ZM318.546 141H316.542V140H318.546V141ZM322.554 141H320.55V140H322.554V141ZM326.562 141H324.558V140H326.562V141ZM330.57 141H328.566V140H330.57V141ZM334.578 141H332.574V140H334.578V141ZM338.586 141H336.582V140H338.586V141ZM342.594 141H340.59V140H342.594V141ZM346.602 141H344.598V140H346.602V141ZM350.61 141H348.606V140H350.61V141ZM354.618 141H352.614V140H354.618V141ZM358.626 141H356.622V140H358.626V141ZM362.634 141H360.63V140H362.634V141ZM366.642 141H364.638V140H366.642V141ZM370.65 141H368.646V140H370.65V141ZM374.658 141H372.654V140H374.658V141ZM378.666 141H376.662V140H378.666V141ZM382.674 141H380.67V140H382.674V141ZM386.682 141H384.678V140H386.682V141ZM390.69 141H388.686V140H390.69V141ZM394.698 141H392.694V140H394.698V141ZM398.706 141H396.702V140H398.706V141ZM402.714 141H400.71V140H402.714V141ZM406.722 141H404.718V140H406.722V141ZM410.73 141H408.726V140H410.73V141ZM414.738 141H412.734V140H414.738V141ZM418.746 141H416.742V140H418.746V141ZM422.754 141H420.75V140H422.754V141ZM426.762 141H424.758V140H426.762V141ZM430.77 141H428.766V140H430.77V141ZM434.778 141H432.774V140H434.778V141ZM438.786 141H436.782V140H438.786V141ZM442.794 141H440.79V140H442.794V141ZM446.802 141H444.798V140H446.802V141ZM450.81 141H448.806V140H450.81V141ZM454.818 141H452.814V140H454.818V141ZM458.826 141H456.822V140H458.826V141ZM462.834 141H460.83V140H462.834V141ZM466.842 141H464.838V140H466.842V141ZM470.85 141H468.846V140H470.85V141ZM474.858 141H472.854V140H474.858V141ZM478.866 141H476.862V140H478.866V141ZM482.874 141H480.87V140H482.874V141ZM486.882 141H484.878V140H486.882V141ZM490.89 141H488.886V140H490.89V141ZM494.898 141H492.894V140H494.898V141ZM498.906 141H496.902V140H498.906V141ZM502.914 141H500.91V140H502.914V141ZM506.922 141H504.918V140H506.922V141ZM510.93 141H508.926V140H510.93V141ZM514.938 141H512.934V140H514.938V141ZM518.946 141H516.942V140H518.946V141ZM522.954 141H520.95V140H522.954V141ZM526.962 141H524.958V140H526.962V141ZM530.97 141H528.966V140H530.97V141ZM534.978 141H532.974V140H534.978V141ZM538.986 141H536.982V140H538.986V141ZM542.994 141H540.99V140H542.994V141ZM546 141H544.998V140H546V141Z" fill="#888888"/>
<path fill-rule="evenodd" clip-rule="evenodd" d="M46.002 111H45V110H46.002V111ZM50.01 111H48.006V110H50.01V111ZM54.018 111H52.014V110H54.018V111ZM58.026 111H56.022V110H58.026V111ZM62.034 111H60.03V110H62.034V111ZM66.042 111H64.038V110H66.042V111ZM70.05 111H68.046V110H70.05V111ZM74.058 111H72.054V110H74.058V111ZM78.066 111H76.062V110H78.066V111ZM82.074 111H80.07V110H82.074V111ZM86.082 111H84.078V110H86.082V111ZM90.09 111H88.086V110H90.09V111ZM94.098 111H92.094V110H94.098V111ZM98.106 111H96.102V110H98.106V111ZM102.114 111H100.11V110H102.114V111ZM106.122 111H104.118V110H106.122V111ZM110.13 111H108.126V110H110.13V111ZM114.138 111H112.134V110H114.138V111ZM118.146 111H116.142V110H118.146V111ZM122.154 111H120.15V110H122.154V111ZM126.162 111H124.158V110H126.162V111ZM130.17 111H128.166V110H130.17V111ZM134.178 111H132.174V110H134.178V111ZM138.186 111H136.182V110H138.186V111ZM142.194 111H140.19V110H142.194V111ZM146.202 111H144.198V110H146.202V111ZM150.21 111H148.206V110H150.21V111ZM154.218 111H152.214V110H154.218V111ZM158.226 111H156.222V110H158.226V111ZM162.234 111H160.23V110H162.234V111ZM166.242 111H164.238V110H166.242V111ZM170.25 111H168.246V110H170.25V111ZM174.258 111H172.254V110H174.258V111ZM178.266 111H176.262V110H178.266V111ZM182.274 111H180.27V110H182.274V111ZM186.282 111H184.278V110H186.282V111ZM190.29 111H188.286V110H190.29V111ZM194.298 111H192.294V110H194.298V111ZM198.306 111H196.302V110H198.306V111ZM202.314 111H200.31V110H202.314V111ZM206.322 111H204.318V110H206.322V111ZM210.33 111H208.326V110H210.33V111ZM214.338 111H212.334V110H214.338V111ZM218.346 111H216.342V110H218.346V111ZM222.354 111H220.35V110H222.354V111ZM226.362 111H224.358V110H226.362V111ZM230.37 111H228.366V110H230.37V111ZM234.378 111H232.374V110H234.378V111ZM238.386 111H236.382V110H238.386V111ZM242.394 111H240.39V110H242.394V111ZM246.402 111H244.398V110H246.402V111ZM250.41 111H248.406V110H250.41V111ZM254.418 111H252.414V110H254.418V111ZM258.426 111H256.422V110H258.426V111ZM262.434 111H260.43V110H262.434V111ZM266.442 111H264.438V110H266.442V111ZM270.45 111H268.446V110H270.45V111ZM274.458 111H272.454V110H274.458V111ZM278.466 111H276.462V110H278.466V111ZM282.474 111H280.47V110H282.474V111ZM286.482 111H284.478V110H286.482V111ZM290.49 111H288.486V110H290.49V111ZM294.498 111H292.494V110H294.498V111ZM298.506 111H296.502V110H298.506V111ZM302.514 111H300.51V110H302.514V111ZM306.522 111H304.518V110H306.522V111ZM310.53 111H308.526V110H310.53V111ZM314.538 111H312.534V110H314.538V111ZM318.546 111H316.542V110H318.546V111ZM322.554 111H320.55V110H322.554V111ZM326.562 111H324.558V110H326.562V111ZM330.57 111H328.566V110H330.57V111ZM334.578 111H332.574V110H334.578V111ZM338.586 111H336.582V110H338.586V111ZM342.594 111H340.59V110H342.594V111ZM346.602 111H344.598V110H346.602V111ZM350.61 111H348.606V110H350.61V111ZM354.618 111H352.614V110H354.618V111ZM358.626 111H356.622V110H358.626V111ZM362.634 111H360.63V110H362.634V111ZM366.642 111H364.638V110H366.642V111ZM370.65 111H368.646V110H370.65V111ZM374.658 111H372.654V110H374.658V111ZM378.666 111H376.662V110H378.666V111ZM382.674 111H380.67V110H382.674V111ZM386.682 111H384.678V110H386.682V111ZM390.69 111H388.686V110H390.69V111ZM394.698 111H392.694V110H394.698V111ZM398.706 111H396.702V110H398.706V111ZM402.714 111H400.71V110H402.714V111ZM406.722 111H404.718V110H406.722V111ZM410.73 111H408.726V110H410.73V111ZM414.738 111H412.734V110H414.738V111ZM418.746 111H416.742V110H418.746V111ZM422.754 111H420.75V110H422.754V111ZM426.762 111H424.758V110H426.762V111ZM430.77 111H428.766V110H430.77V111ZM434.778 111H432.774V110H434.778V111ZM438.786 111H436.782V110H438.786V111ZM442.794 111H440.79V110H442.794V111ZM446.802 111H444.798V110H446.802V111ZM450.81 111H448.806V110H450.81V111ZM454.818 111H452.814V110H454.818V111ZM458.826 111H456.822V110H458.826V111ZM462.834 111H460.83V110H462.834V111ZM466.842 111H464.838V110H466.842V111ZM470.85 111H468.846V110H470.85V111ZM474.858 111H472.854V110H474.858V111ZM478.866 111H476.862V110H478.866V111ZM482.874 111H480.87V110H482.874V111ZM486.882 111H484.878V110H486.882V111ZM490.89 111H488.886V110H490.89V111ZM494.898 111H492.894V110H494.898V111ZM498.906 111H496.902V110H498.906V111ZM502.914 111H500.91V110H502.914V111ZM506.922 111H504.918V110H506.922V111ZM510.93 111H508.926V110H510.93V111ZM514.938 111H512.934V110H514.938V111ZM518.946 111H516.942V110H518.946V111ZM522.954 111H520.95V110H522.954V111ZM526.962 111H524.958V110H526.962V111ZM530.97 111H528.966V110H530.97V111ZM534.978 111H532.974V110H534.978V111ZM538.986 111H536.982V110H538.986V111ZM542.994 111H540.99V110H542.994V111ZM546 111H544.998V110H546V111Z" fill="#888888"/>
<path fill-rule="evenodd" clip-rule="evenodd" d="M46.002 81H45V80H46.002V81ZM50.01 81H48.006V80H50.01V81ZM54.018 81H52.014V80H54.018V81ZM58.026 81H56.022V80H58.026V81ZM62.034 81H60.03V80H62.034V81ZM66.042 81H64.038V80H66.042V81ZM70.05 81H68.046V80H70.05V81ZM74.058 81H72.054V80H74.058V81ZM78.066 81H76.062V80H78.066V81ZM82.074 81H80.07V80H82.074V81ZM86.082 81H84.078V80H86.082V81ZM90.09 81H88.086V80H90.09V81ZM94.098 81H92.094V80H94.098V81ZM98.106 81H96.102V80H98.106V81ZM102.114 81H100.11V80H102.114V81ZM106.122 81H104.118V80H106.122V81ZM110.13 81H108.126V80H110.13V81ZM114.138 81H112.134V80H114.138V81ZM118.146 81H116.142V80H118.146V81ZM122.154 81H120.15V80H122.154V81ZM126.162 81H124.158V80H126.162V81ZM130.17 81H128.166V80H130.17V81ZM134.178 81H132.174V80H134.178V81ZM138.186 81H136.182V80H138.186V81ZM142.194 81H140.19V80H142.194V81ZM146.202 81H144.198V80H146.202V81ZM150.21 81H148.206V80H150.21V81ZM154.218 81H152.214V80H154.218V81ZM158.226 81H156.222V80H158.226V81ZM162.234 81H160.23V80H162.234V81ZM166.242 81H164.238V80H166.242V81ZM170.25 81H168.246V80H170.25V81ZM174.258 81H172.254V80H174.258V81ZM178.266 81H176.262V80H178.266V81ZM182.274 81H180.27V80H182.274V81ZM186.282 81H184.278V80H186.282V81ZM190.29 81H188.286V80H190.29V81ZM194.298 81H192.294V80H194.298V81ZM198.306 81H196.302V80H198.306V81ZM202.314 81H200.31V80H202.314V81ZM206.322 81H204.318V80H206.322V81ZM210.33 81H208.326V80H210.33V81ZM214.338 81H212.334V80H214.338V81ZM218.346 81H216.342V80H218.346V81ZM222.354 81H220.35V80H222.354V81ZM226.362 81H224.358V80H226.362V81ZM230.37 81H228.366V80H230.37V81ZM234.378 81H232.374V80H234.378V81ZM238.386 81H236.382V80H238.386V81ZM242.394 81H240.39V80H242.394V81ZM246.402 81H244.398V80H246.402V81ZM250.41 81H248.406V80H250.41V81ZM254.418 81H252.414V80H254.418V81ZM258.426 81H256.422V80H258.426V81ZM262.434 81H260.43V80H262.434V81ZM266.442 81H264.438V80H266.442V81ZM270.45 81H268.446V80H270.45V81ZM274.458 81H272.454V80H274.458V81ZM278.466 81H276.462V80H278.466V81ZM282.474 81H280.47V80H282.474V81ZM286.482 81H284.478V80H286.482V81ZM290.49 81H288.486V80H290.49V81ZM294.498 81H292.494V80H294.498V81ZM298.506 81H296.502V80H298.506V81ZM302.514 81H300.51V80H302.514V81ZM306.522 81H304.518V80H306.522V81ZM310.53 81H308.526V80H310.53V81ZM314.538 81H312.534V80H314.538V81ZM318.546 81H316.542V80H318.546V81ZM322.554 81H320.55V80H322.554V81ZM326.562 81H324.558V80H326.562V81ZM330.57 81H328.566V80H330.57V81ZM334.578 81H332.574V80H334.578V81ZM338.586 81H336.582V80H338.586V81ZM342.594 81H340.59V80H342.594V81ZM346.602 81H344.598V80H346.602V81ZM350.61 81H348.606V80H350.61V81ZM354.618 81H352.614V80H354.618V81ZM358.626 81H356.622V80H358.626V81ZM362.634 81H360.63V80H362.634V81ZM366.642 81H364.638V80H366.642V81ZM370.65 81H368.646V80H370.65V81ZM374.658 81H372.654V80H374.658V81ZM378.666 81H376.662V80H378.666V81ZM382.674 81H380.67V80H382.674V81ZM386.682 81H384.678V80H386.682V81ZM390.69 81H388.686V80H390.69V81ZM394.698 81H392.694V80H394.698V81ZM398.706 81H396.702V80H398.706V81ZM402.714 81H400.71V80H402.714V81ZM406.722 81H404.718V80H406.722V81ZM410.73 81H408.726V80H410.73V81ZM414.738 81H412.734V80H414.738V81ZM418.746 81H416.742V80H418.746V81ZM422.754 81H420.75V80H422.754V81ZM426.762 81H424.758V80H426.762V81ZM430.77 81H428.766V80H430.77V81ZM434.778 81H432.774V80H434.778V81ZM438.786 81H436.782V80H438.786V81ZM442.794 81H440.79V80H442.794V81ZM446.802 81H444.798V80H446.802V81ZM450.81 81H448.806V80H450.81V81ZM454.818 81H452.814V80H454.818V81ZM458.826 81H456.822V80H458.826V81ZM462.834 81H460.83V80H462.834V81ZM466.842 81H464.838V80H466.842V81ZM470.85 81H468.846V80H470.85V81ZM474.858 81H472.854V80H474.858V81ZM478.866 81H476.862V80H478.866V81ZM482.874 81H480.87V80H482.874V81ZM486.882 81H484.878V80H486.882V81ZM490.89 81H488.886V80H490.89V81ZM494.898 81H492.894V80H494.898V81ZM498.906 81H496.902V80H498.906V81ZM502.914 81H500.91V80H502.914V81ZM506.922 81H504.918V80H506.922V81ZM510.93 81H508.926V80H510.93V81ZM514.938 81H512.934V80H514.938V81ZM518.946 81H516.942V80H518.946V81ZM522.954 81H520.95V80H522.954V81ZM526.962 81H524.958V80H526.962V81ZM530.97 81H528.966V80H530.97V81ZM534.978 81H532.974V80H534.978V81ZM538.986 81H536.982V80H538.986V81ZM542.994 81H540.99V80H542.994V81ZM546 81H544.998V80H546V81Z" fill="#888888"/>
<path d="M130.898 211.406V216H129.724V208.364H130.858V209.557H130.957C131.136 209.169 131.408 208.857 131.773 208.622C132.137 208.383 132.608 208.264 133.184 208.264C133.702 208.264 134.154 208.37 134.542 208.582C134.929 208.791 135.231 209.109 135.447 209.537C135.662 209.961 135.77 210.498 135.77 211.148V216H134.596V211.227C134.596 210.627 134.441 210.16 134.129 209.825C133.818 209.487 133.39 209.318 132.846 209.318C132.472 209.318 132.137 209.399 131.842 209.562C131.55 209.724 131.32 209.961 131.151 210.273C130.982 210.584 130.898 210.962 130.898 211.406Z" fill="#888888"/>
<path d="M124.083 216.179C123.599 216.179 123.16 216.088 122.765 215.905C122.371 215.72 122.058 215.453 121.826 215.105C121.594 214.754 121.478 214.33 121.478 213.832C121.478 213.395 121.564 213.04 121.736 212.768C121.908 212.493 122.139 212.278 122.427 212.122C122.715 211.966 123.034 211.85 123.382 211.774C123.733 211.695 124.086 211.632 124.441 211.585C124.905 211.526 125.281 211.481 125.569 211.451C125.861 211.418 126.073 211.363 126.206 211.287C126.341 211.211 126.409 211.078 126.409 210.889V210.849C126.409 210.359 126.275 209.978 126.007 209.706C125.742 209.434 125.339 209.298 124.799 209.298C124.238 209.298 123.799 209.421 123.481 209.666C123.163 209.911 122.939 210.173 122.81 210.452L121.696 210.054C121.895 209.59 122.16 209.229 122.492 208.97C122.826 208.708 123.191 208.526 123.585 208.423C123.983 208.317 124.374 208.264 124.759 208.264C125.004 208.264 125.286 208.294 125.604 208.354C125.925 208.41 126.235 208.528 126.534 208.707C126.835 208.886 127.085 209.156 127.284 209.517C127.483 209.878 127.583 210.362 127.583 210.969V216H126.409V214.966H126.35C126.27 215.132 126.138 215.309 125.952 215.498C125.766 215.687 125.519 215.847 125.211 215.98C124.903 216.113 124.527 216.179 124.083 216.179ZM124.262 215.125C124.726 215.125 125.117 215.034 125.435 214.852C125.756 214.669 125.998 214.434 126.161 214.146C126.326 213.857 126.409 213.554 126.409 213.236V212.162C126.36 212.222 126.25 212.276 126.081 212.326C125.916 212.372 125.723 212.414 125.505 212.45C125.289 212.483 125.079 212.513 124.873 212.54C124.671 212.563 124.507 212.583 124.381 212.599C124.076 212.639 123.791 212.704 123.526 212.793C123.264 212.879 123.052 213.01 122.889 213.186C122.73 213.358 122.651 213.594 122.651 213.892C122.651 214.3 122.802 214.608 123.103 214.817C123.408 215.022 123.794 215.125 124.262 215.125Z" fill="#888888"/>
<path d="M118.291 205.818H119.524V213.097C119.524 213.746 119.404 214.298 119.166 214.752C118.927 215.206 118.591 215.551 118.157 215.786C117.722 216.021 117.21 216.139 116.62 216.139C116.064 216.139 115.568 216.038 115.134 215.836C114.7 215.63 114.358 215.339 114.11 214.961C113.861 214.583 113.737 214.134 113.737 213.614H114.95C114.95 213.902 115.021 214.154 115.164 214.369C115.309 214.581 115.508 214.747 115.76 214.866C116.012 214.986 116.299 215.045 116.62 215.045C116.975 215.045 117.277 214.971 117.525 214.822C117.774 214.673 117.963 214.454 118.092 214.165C118.225 213.874 118.291 213.517 118.291 213.097V205.818Z" fill="#888888"/>
<path d="M229.288 217V206.818H230.461V210.577H230.56C230.646 210.444 230.766 210.275 230.918 210.07C231.074 209.861 231.296 209.675 231.584 209.513C231.876 209.347 232.271 209.264 232.768 209.264C233.411 209.264 233.977 209.425 234.468 209.746C234.959 210.068 235.341 210.524 235.616 211.114C235.892 211.704 236.029 212.4 236.029 213.202C236.029 214.01 235.892 214.711 235.616 215.305C235.341 215.895 234.96 216.352 234.473 216.677C233.986 216.998 233.424 217.159 232.788 217.159C232.297 217.159 231.904 217.078 231.609 216.915C231.314 216.75 231.087 216.562 230.928 216.354C230.769 216.142 230.646 215.966 230.56 215.827H230.421V217H229.288ZM230.441 213.182C230.441 213.758 230.526 214.267 230.695 214.708C230.864 215.146 231.111 215.489 231.435 215.737C231.76 215.982 232.158 216.105 232.629 216.105C233.119 216.105 233.528 215.976 233.856 215.717C234.188 215.455 234.437 215.104 234.602 214.663C234.771 214.219 234.856 213.725 234.856 213.182C234.856 212.645 234.773 212.161 234.607 211.73C234.445 211.296 234.198 210.953 233.866 210.701C233.538 210.446 233.126 210.318 232.629 210.318C232.151 210.318 231.75 210.439 231.425 210.681C231.101 210.92 230.855 211.254 230.69 211.685C230.524 212.113 230.441 212.612 230.441 213.182Z" fill="#888888"/>
<path d="M224.182 217.159C223.446 217.159 222.811 216.997 222.278 216.672C221.747 216.344 221.338 215.886 221.05 215.3C220.765 214.71 220.622 214.024 220.622 213.241C220.622 212.459 220.765 211.77 221.05 211.173C221.338 210.573 221.739 210.106 222.253 209.771C222.77 209.433 223.373 209.264 224.062 209.264C224.46 209.264 224.853 209.33 225.241 209.463C225.628 209.596 225.981 209.811 226.3 210.109C226.618 210.404 226.871 210.795 227.06 211.283C227.249 211.77 227.344 212.37 227.344 213.082V213.58H221.457V212.565H226.15C226.15 212.134 226.064 211.75 225.892 211.412C225.723 211.074 225.481 210.807 225.166 210.611C224.855 210.416 224.487 210.318 224.062 210.318C223.595 210.318 223.191 210.434 222.849 210.666C222.511 210.895 222.251 211.193 222.069 211.561C221.887 211.929 221.795 212.323 221.795 212.744V213.42C221.795 213.997 221.895 214.486 222.094 214.887C222.296 215.285 222.576 215.588 222.934 215.797C223.292 216.002 223.708 216.105 224.182 216.105C224.49 216.105 224.768 216.062 225.017 215.976C225.269 215.886 225.486 215.754 225.668 215.578C225.851 215.399 225.991 215.177 226.091 214.912L227.224 215.23C227.105 215.615 226.905 215.953 226.623 216.244C226.341 216.533 225.993 216.758 225.579 216.92C225.164 217.08 224.699 217.159 224.182 217.159Z" fill="#888888"/>
<path d="M213.483 217V206.818H219.588V207.912H214.716V211.352H219.131V212.446H214.716V217H213.483Z" fill="#888888"/>
<path d="M333.641 218V210.364H334.775V211.517H334.854C334.993 211.139 335.245 210.833 335.61 210.597C335.974 210.362 336.385 210.244 336.843 210.244C336.929 210.244 337.037 210.246 337.166 210.249C337.295 210.253 337.393 210.258 337.459 210.264V211.457C337.42 211.447 337.328 211.432 337.186 211.413C337.047 211.389 336.899 211.378 336.743 211.378C336.372 211.378 336.041 211.456 335.749 211.611C335.461 211.764 335.232 211.976 335.063 212.248C334.897 212.516 334.814 212.823 334.814 213.168V218H333.641Z" fill="#888888"/>
<path d="M328 218.179C327.516 218.179 327.077 218.088 326.682 217.905C326.288 217.72 325.975 217.453 325.743 217.105C325.511 216.754 325.395 216.33 325.395 215.832C325.395 215.395 325.481 215.04 325.653 214.768C325.825 214.493 326.056 214.278 326.344 214.122C326.632 213.966 326.951 213.85 327.299 213.774C327.65 213.695 328.003 213.632 328.358 213.585C328.822 213.526 329.198 213.481 329.486 213.451C329.778 213.418 329.99 213.363 330.123 213.287C330.258 213.211 330.326 213.078 330.326 212.889V212.849C330.326 212.359 330.192 211.978 329.924 211.706C329.659 211.434 329.256 211.298 328.716 211.298C328.155 211.298 327.716 211.421 327.398 211.666C327.08 211.911 326.856 212.173 326.727 212.452L325.613 212.054C325.812 211.59 326.077 211.229 326.409 210.97C326.743 210.708 327.108 210.526 327.502 210.423C327.9 210.317 328.291 210.264 328.676 210.264C328.921 210.264 329.203 210.294 329.521 210.354C329.842 210.41 330.152 210.528 330.451 210.707C330.752 210.886 331.002 211.156 331.201 211.517C331.4 211.878 331.5 212.362 331.5 212.969V218H330.326V216.966H330.267C330.187 217.132 330.055 217.309 329.869 217.498C329.683 217.687 329.436 217.847 329.128 217.98C328.82 218.113 328.444 218.179 328 218.179ZM328.179 217.125C328.643 217.125 329.034 217.034 329.352 216.852C329.673 216.669 329.915 216.434 330.078 216.146C330.243 215.857 330.326 215.554 330.326 215.236V214.162C330.277 214.222 330.167 214.276 329.998 214.326C329.833 214.372 329.64 214.414 329.422 214.45C329.206 214.483 328.996 214.513 328.79 214.54C328.588 214.563 328.424 214.583 328.298 214.599C327.993 214.639 327.708 214.704 327.443 214.793C327.181 214.879 326.969 215.01 326.806 215.186C326.647 215.358 326.568 215.594 326.568 215.892C326.568 216.3 326.719 216.608 327.02 216.817C327.325 217.022 327.711 217.125 328.179 217.125Z" fill="#888888"/>
<path d="M313.457 207.818H314.928L318.388 216.27H318.508L321.968 207.818H323.439V218H322.286V210.264H322.187L319.005 218H317.891L314.709 210.264H314.61V218H313.457V207.818Z" fill="#888888"/>
<path d="M432.465 217V209.364H433.599V210.517H433.678C433.818 210.139 434.069 209.833 434.434 209.597C434.799 209.362 435.21 209.244 435.667 209.244C435.753 209.244 435.861 209.246 435.99 209.249C436.119 209.253 436.217 209.258 436.284 209.264V210.457C436.244 210.447 436.153 210.432 436.01 210.413C435.871 210.389 435.723 210.378 435.568 210.378C435.196 210.378 434.865 210.456 434.573 210.611C434.285 210.764 434.056 210.976 433.887 211.248C433.721 211.516 433.639 211.823 433.639 212.168V217H432.465Z" fill="#888888"/>
<path d="M423.934 219.864V209.364H425.068V210.577H425.207C425.293 210.444 425.412 210.275 425.565 210.07C425.721 209.861 425.943 209.675 426.231 209.513C426.523 209.347 426.917 209.264 427.414 209.264C428.057 209.264 428.624 209.425 429.114 209.746C429.605 210.068 429.988 210.524 430.263 211.114C430.538 211.704 430.676 212.4 430.676 213.202C430.676 214.01 430.538 214.711 430.263 215.305C429.988 215.895 429.607 216.352 429.119 216.677C428.632 216.998 428.07 217.159 427.434 217.159C426.944 217.159 426.551 217.078 426.256 216.915C425.961 216.75 425.734 216.562 425.575 216.354C425.416 216.142 425.293 215.966 425.207 215.827H425.107V219.864H423.934ZM425.087 213.182C425.087 213.758 425.172 214.267 425.341 214.708C425.51 215.146 425.757 215.489 426.082 215.737C426.407 215.982 426.804 216.105 427.275 216.105C427.766 216.105 428.175 215.976 428.503 215.717C428.834 215.455 429.083 215.104 429.249 214.663C429.418 214.219 429.502 213.725 429.502 213.182C429.502 212.645 429.419 212.161 429.254 211.73C429.091 211.296 428.844 210.953 428.513 210.701C428.185 210.446 427.772 210.318 427.275 210.318C426.798 210.318 426.397 210.439 426.072 210.681C425.747 210.92 425.502 211.254 425.336 211.685C425.17 212.113 425.087 212.612 425.087 213.182Z" fill="#888888"/>
<path d="M415.05 217H413.757L417.496 206.818H418.769L422.507 217H421.215L418.172 208.429H418.093L415.05 217ZM415.527 213.023H420.737V214.116H415.527V213.023Z" fill="#888888"/>
<path d="M533.968 219.864C533.769 219.864 533.592 219.847 533.436 219.814C533.281 219.784 533.173 219.754 533.113 219.724L533.411 218.69C533.696 218.763 533.948 218.79 534.167 218.77C534.386 218.75 534.58 218.652 534.749 218.476C534.921 218.304 535.079 218.024 535.221 217.636L535.44 217.04L532.616 209.364H533.889L535.997 215.449H536.076L538.184 209.364H539.457L536.215 218.114C536.07 218.508 535.889 218.834 535.673 219.093C535.458 219.355 535.208 219.549 534.923 219.675C534.641 219.801 534.323 219.864 533.968 219.864Z" fill="#888888"/>
<path d="M527.844 217.179C527.36 217.179 526.921 217.088 526.527 216.905C526.132 216.72 525.819 216.453 525.587 216.105C525.355 215.754 525.239 215.33 525.239 214.832C525.239 214.395 525.325 214.04 525.498 213.768C525.67 213.493 525.9 213.278 526.189 213.122C526.477 212.966 526.795 212.85 527.143 212.774C527.495 212.695 527.848 212.632 528.202 212.585C528.666 212.526 529.043 212.481 529.331 212.451C529.623 212.418 529.835 212.363 529.967 212.287C530.103 212.211 530.171 212.078 530.171 211.889V211.849C530.171 211.359 530.037 210.978 529.768 210.706C529.503 210.434 529.101 210.298 528.56 210.298C528 210.298 527.561 210.421 527.243 210.666C526.925 210.911 526.701 211.173 526.572 211.452L525.458 211.054C525.657 210.59 525.922 210.229 526.253 209.97C526.588 209.708 526.953 209.526 527.347 209.423C527.745 209.317 528.136 209.264 528.521 209.264C528.766 209.264 529.047 209.294 529.366 209.354C529.687 209.41 529.997 209.528 530.295 209.707C530.597 209.886 530.847 210.156 531.046 210.517C531.245 210.878 531.344 211.362 531.344 211.969V217H530.171V215.966H530.111C530.032 216.132 529.899 216.309 529.714 216.498C529.528 216.687 529.281 216.847 528.973 216.98C528.665 217.113 528.289 217.179 527.844 217.179ZM528.023 216.125C528.487 216.125 528.878 216.034 529.197 215.852C529.518 215.669 529.76 215.434 529.922 215.146C530.088 214.857 530.171 214.554 530.171 214.236V213.162C530.121 213.222 530.012 213.276 529.843 213.326C529.677 213.372 529.485 213.414 529.266 213.45C529.051 213.483 528.84 213.513 528.635 213.54C528.433 213.563 528.269 213.583 528.143 213.599C527.838 213.639 527.553 213.704 527.288 213.793C527.026 213.879 526.814 214.01 526.651 214.186C526.492 214.358 526.413 214.594 526.413 214.892C526.413 215.3 526.563 215.608 526.865 215.817C527.17 216.022 527.556 216.125 528.023 216.125Z" fill="#888888"/>
<path d="M513.301 206.818H514.773L518.233 215.27H518.352L521.813 206.818H523.284V217H522.131V209.264H522.031L518.85 217H517.736L514.554 209.264H514.455V217H513.301V206.818Z" fill="#888888"/>
<path d="M109 145.5C109 140.806 112.806 137 117.5 137C122.194 137 126 140.806 126 145.5V196H109V145.5Z" fill="#290059"/>
<path d="M204 103.5C204 98.8056 207.806 95 212.5 95C217.194 95 221 98.8056 221 103.5V195H204V103.5Z" fill="#290059"/>
<path d="M142 124.5C142 119.806 145.806 116 150.5 116C155.194 116 159 119.806 159 124.5V195H142V124.5Z" fill="#FF971D"/>
<path d="M237 136.5C237 131.806 240.806 128 245.5 128C250.194 128 254 131.806 254 136.5V195H237V136.5Z" fill="#FF971D"/>
<path d="M301 127.5C301 122.806 304.806 119 309.5 119C314.194 119 318 122.806 318 127.5V195H301V127.5Z" fill="#290059"/>
<path d="M334 144.5C334 139.806 337.806 136 342.5 136C347.194 136 351 139.806 351 144.5V195H334V144.5Z" fill="#FF971D"/>
<path d="M398 119.5C398 114.806 401.806 111 406.5 111C411.194 111 415 114.806 415 119.5V195H398V119.5Z" fill="#290059"/>
<path d="M431 170.5C431 165.806 434.806 162 439.5 162C444.194 162 448 165.806 448 170.5V195H431V170.5Z" fill="#FF971D"/>
<path d="M497 144.5C497 139.806 500.806 136 505.5 136C510.194 136 514 139.806 514 144.5V195H497V144.5Z" fill="#290059"/>
<path d="M530 103.5C530 98.8056 533.806 95 538.5 95C543.194 95 547 98.8056 547 103.5V195H530V103.5Z" fill="#FF971D"/>
</svg>
